<svg width="350" height="351" viewBox="0 0 350 351" fill="none" xmlns="http://www.w3.org/2000/svg">
<circle cx="175" cy="175.531" r="143" fill="#ECD4FF"/>
<path d="M212.516 76.1196C211.453 80.7699 211.87 85.639 213.707 90.0374C213.905 90.4181 214.176 90.7555 214.504 91.0301C214.832 91.3047 215.211 91.511 215.619 91.6372C216.027 91.7634 216.455 91.8069 216.88 91.7652C217.304 91.7235 217.717 91.5975 218.093 91.3944C218.851 90.9915 219.422 90.3041 219.681 89.4807C219.887 88.6481 219.802 87.7693 219.439 86.9929L219.18 86.3318C219.284 86.5928 219.387 86.8537 219.474 87.1147C218.906 85.5743 218.541 83.966 218.386 82.3304C218.386 82.6088 218.386 82.8871 218.472 83.1655C218.314 81.5297 218.372 79.8799 218.645 78.2595L218.49 79.1293L218.697 78.0855C218.93 77.2568 218.85 76.3704 218.472 75.5977C218.171 75.0304 217.71 74.5652 217.148 74.2605C216.586 73.9557 215.946 73.8248 215.311 73.8842C214.675 73.9437 214.07 74.1907 213.573 74.5945C213.076 74.9983 212.708 75.5409 212.516 76.1544V76.1196Z" fill="#E0E0E0"/>
<path d="M212.515 76.1194C212.515 76.1194 212.515 75.8237 212.705 75.3192C213.076 74.6215 213.692 74.0881 214.432 73.823C214.986 73.6293 215.576 73.5639 216.158 73.6316C216.86 73.714 217.515 74.0257 218.023 74.5189C218.617 75.0775 218.996 75.829 219.094 76.6414C219.124 77.4913 219.031 78.3412 218.817 79.164L218.075 79.0248L218.213 78.1549L218.973 78.2941C218.733 79.883 218.687 81.4955 218.835 83.0957H217.989C217.989 82.8348 217.989 82.539 217.902 82.2433H218.766C218.924 83.8387 219.29 85.4063 219.853 86.9057L219.007 87.2189L218.714 86.436L219.56 86.1229L219.802 86.7492C220.194 87.6029 220.291 88.5646 220.078 89.4805C219.815 90.3699 219.237 91.1312 218.455 91.6204C217.71 92.0678 216.833 92.2397 215.976 92.1063C215.119 91.9729 214.335 91.5427 213.758 90.8897C213.489 90.5829 213.289 90.2208 213.171 89.8285C213.033 89.4805 212.912 89.15 212.809 88.8194C212.582 88.1757 212.391 87.5193 212.239 86.8535C211.953 85.6647 211.763 84.4546 211.669 83.2349C211.544 81.4904 211.637 79.7369 211.946 78.0157C212.028 77.3733 212.203 76.7463 212.463 76.1542C212.199 78.5048 212.147 80.8748 212.308 83.2349C212.422 84.4123 212.642 85.5769 212.964 86.7144C213.123 87.3575 213.319 87.9907 213.551 88.6107C213.727 89.2339 214.007 89.8223 214.38 90.3504C214.832 90.8509 215.442 91.177 216.107 91.2724C216.768 91.3997 217.453 91.2691 218.023 90.9071C218.62 90.5431 219.058 89.9651 219.249 89.2892C219.423 88.5655 219.344 87.8036 219.025 87.1319L218.766 86.4882L219.612 86.1577C219.715 86.436 219.802 86.697 219.905 86.9405L219.059 87.2537C218.483 85.6791 218.111 84.0359 217.954 82.3651L218.817 82.2781C218.817 82.5564 218.817 82.8522 218.817 83.1131H217.971C217.824 81.4346 217.9 79.7438 218.196 78.0853L218.956 78.2245L218.8 79.077L218.058 78.9552C218.281 78.2046 218.391 77.4248 218.386 76.6414C218.333 75.9815 218.045 75.3633 217.574 74.9016C217.189 74.5121 216.705 74.2375 216.175 74.1086C215.644 73.9796 215.089 74.0012 214.57 74.1709C213.87 74.349 213.257 74.7752 212.843 75.3714C212.636 75.8933 212.567 76.1194 212.515 76.1194Z" fill="#323949"/>
<path d="M132.884 194.421C136.643 191.655 139.635 187.963 141.573 183.698C143.511 179.434 144.33 174.74 143.951 170.065L173.01 148.109C177.377 149.743 182.08 150.246 186.689 149.573C191.299 148.9 195.667 147.073 199.393 144.258C203.12 141.443 206.086 137.731 208.019 133.462C209.953 129.192 210.792 124.502 210.461 119.821L213.258 117.699C216.136 115.59 218.413 112.754 219.858 109.477C221.304 106.201 221.868 102.598 221.494 99.0317C222.2 98.6278 222.88 98.1805 223.531 97.6921C225.253 96.391 226.704 94.7609 227.801 92.8948C228.898 91.0287 229.619 88.9632 229.924 86.8162C230.229 84.6692 230.11 82.4828 229.576 80.3818C229.042 78.2808 228.103 76.3063 226.812 74.5711C225.52 72.8359 223.903 71.374 222.051 70.2688C220.199 69.1636 218.149 68.4368 216.018 68.1299C213.887 67.8229 211.717 67.9419 209.632 68.4799C207.547 69.018 205.587 69.9645 203.865 71.2656C202.907 71.9885 202.033 72.8172 201.258 73.7361C196.383 71.7569 191.08 71.0962 185.873 71.8194C180.667 72.5427 175.739 74.6248 171.577 77.8592L161.701 85.3226L134.49 82.3651C127.906 81.7148 121.319 83.5772 116.032 87.5843L74.7832 118.83C69.8995 122.449 66.5512 127.792 65.4077 133.791L60.2278 162.097L59.9171 162.323C51.1113 168.986 48.9185 181.077 55.0307 189.289L66.8408 205.155C72.9185 213.332 85.0048 214.602 93.776 207.973L106.587 198.3C110.934 199.971 115.634 200.492 120.237 199.813C124.841 199.134 129.195 197.277 132.884 194.421ZM209.235 87.6017C208.397 86.5051 207.903 85.1819 207.816 83.801C207.728 82.4201 208.051 81.0442 208.743 79.8492C209.436 78.6542 210.466 77.6943 211.702 77.0922C212.939 76.49 214.325 76.2728 215.685 76.4685C217.044 76.6642 218.315 77.2638 219.335 78.1907C220.354 79.1177 221.076 80.3298 221.409 81.6723C221.741 83.0149 221.669 84.4268 221.202 85.7278C220.734 87.0287 219.892 88.1597 218.783 88.9761C218.068 89.5207 217.254 89.9177 216.387 90.1443C215.519 90.3709 214.616 90.4226 213.729 90.2965C212.842 90.1704 211.988 89.869 211.217 89.4095C210.446 88.9501 209.772 88.3416 209.235 87.6191V87.6017Z" fill="white"/>
<path d="M209.235 87.619C209.235 87.619 209.667 88.0539 210.513 88.6976C211.703 89.5915 213.155 90.0626 214.639 90.0372C215.833 90.0328 217.002 89.6941 218.016 89.0589C219.03 88.4238 219.848 87.5172 220.381 86.4404C220.913 85.3636 221.137 84.1589 221.029 82.961C220.921 81.763 220.485 80.6189 219.769 79.6563C219.053 78.6938 218.085 77.9507 216.975 77.51C215.864 77.0694 214.653 76.9485 213.478 77.1609C212.303 77.3733 211.21 77.9106 210.32 78.7128C209.431 79.5151 208.78 80.5506 208.441 81.7039C208.003 83.1392 208.046 84.6795 208.561 86.0881C208.941 87.0797 209.304 87.5668 209.235 87.619C208.788 87.2419 208.444 86.7572 208.233 86.2098C207.561 84.7455 207.415 83.0912 207.819 81.53C208.13 80.358 208.73 79.2842 209.563 78.4083C210.397 77.5324 211.436 76.8827 212.585 76.5196C214.007 76.0717 215.533 76.0788 216.952 76.5399C218.371 77.0009 219.613 77.8934 220.508 79.0946C221.403 80.2958 221.907 81.7469 221.951 83.2483C221.994 84.7498 221.575 86.228 220.751 87.4798C220.085 88.4913 219.175 89.3157 218.106 89.8756C217.036 90.4355 215.844 90.7126 214.639 90.6809C213.03 90.6379 211.489 90.0215 210.288 88.9412C209.834 88.5947 209.472 88.1405 209.235 87.619Z" fill="#323949"/>
<path d="M132.884 194.42C132.884 194.42 132.401 194.803 131.416 195.516C127.486 198.185 122.947 199.801 118.225 200.214C114.213 200.56 110.177 199.965 106.432 198.474H106.622L99.7157 203.693L96.038 206.598C94.7431 207.573 93.4308 208.599 91.9632 209.521C88.83 211.423 85.2602 212.472 81.6035 212.566C77.6115 212.694 73.6819 211.543 70.3805 209.278C68.673 208.03 67.1749 206.514 65.9431 204.789L62.0755 199.57C59.4683 196.09 56.7057 192.489 53.9777 188.627C52.6498 186.558 51.7485 184.242 51.3273 181.815C50.9061 179.388 50.9736 176.9 51.5259 174.5C52.6843 169.406 55.6346 164.907 59.8309 161.835L59.6928 162.079C61.4194 152.545 63.146 142.576 65.287 132.173C66.681 126.84 69.7974 122.127 74.1445 118.777L87.3704 108.774L114.996 87.8969C119.757 84.0482 125.659 81.9168 131.762 81.8426C133.287 81.8614 134.809 81.9776 136.32 82.1906L140.844 82.6777L149.926 83.6693L161.719 84.9393L161.39 85.0263L170.3 78.311C171.767 77.1662 173.307 76.1201 174.91 75.1795C176.53 74.2784 178.222 73.5161 179.969 72.9004C186.897 70.4074 194.492 70.5684 201.31 73.3528L200.792 73.4745C202.393 71.5845 204.387 70.0724 206.633 69.0455C208.879 68.0186 211.321 67.502 213.787 67.5322C216.253 67.5625 218.683 68.1389 220.903 69.2206C223.123 70.3023 225.081 71.8628 226.636 73.7915C228.191 75.7203 229.306 77.9701 229.902 80.3814C230.498 82.7928 230.56 85.3067 230.084 87.745C229.608 90.1833 228.606 92.4863 227.148 94.4908C225.691 96.4953 223.813 98.1523 221.649 99.3443L221.857 98.9441C222.35 103.277 221.435 107.654 219.249 111.418C218.206 113.231 216.909 114.883 215.399 116.324C213.88 117.751 212.222 118.881 210.651 120.099L210.806 119.751C211.267 124.973 210.217 130.218 207.785 134.852C205.481 139.2 202.125 142.892 198.029 145.586C194.362 148.043 190.163 149.576 185.785 150.058C181.408 150.539 176.979 149.954 172.872 148.352H173.149L144.107 170.169V169.977C144.465 174.048 143.874 178.147 142.38 181.946C141.318 184.692 139.832 187.252 137.978 189.532C136.849 190.923 135.589 192.199 134.214 193.342C133.281 194.09 132.78 194.438 132.78 194.438C132.78 194.438 133.229 194.02 134.144 193.255C135.471 192.081 136.696 190.794 137.805 189.41C139.619 187.124 141.064 184.564 142.087 181.825C143.508 178.068 144.04 174.029 143.641 170.029V169.908H143.744L172.752 147.865H172.872H173.028C177.059 149.403 181.398 149.943 185.679 149.44C189.96 148.938 194.06 147.407 197.632 144.977C201.613 142.351 204.877 138.762 207.128 134.539C209.481 130.023 210.489 124.918 210.029 119.838V119.612L210.202 119.473C211.756 118.255 213.431 117.124 214.864 115.75C216.348 114.342 217.607 112.711 218.593 110.913C220.682 107.298 221.56 103.101 221.097 98.9441V98.6658L221.339 98.5266C223.328 97.423 225.061 95.9046 226.421 94.0727C227.782 92.2409 228.74 90.1377 229.23 87.9035C229.72 85.6693 229.732 83.3554 229.264 81.1163C228.797 78.8772 227.861 76.7642 226.518 74.9185C225.099 72.9633 223.259 71.3568 221.136 70.219C219.013 69.0812 216.663 68.4415 214.26 68.3479C211.857 68.2542 209.465 68.7089 207.261 69.678C205.058 70.6471 203.1 72.1055 201.534 73.9443L201.327 74.2052L201.034 74.066C194.413 71.3699 187.041 71.2152 180.314 73.6311C178.625 74.2443 176.985 74.9888 175.411 75.858C173.84 76.7816 172.329 77.8043 170.887 78.9199L161.995 85.6526L161.839 85.757H161.667L149.891 84.4696L140.792 83.4954L136.251 83.0778C134.774 82.8818 133.286 82.7715 131.796 82.7473C125.889 82.823 120.176 84.8866 115.566 88.6102L87.9402 109.487L74.7143 119.473C70.4905 122.695 67.4528 127.243 66.0812 132.399C64.0438 142.681 62.2481 152.719 60.4352 162.235V162.392H60.3143C56.2558 165.338 53.3918 169.663 52.2511 174.57C51.7182 176.877 51.6499 179.268 52.0503 181.602C52.4506 183.935 53.3115 186.165 54.582 188.157C57.241 191.95 60.0381 195.569 62.628 199.1L66.4783 204.319C68.153 206.775 70.4199 208.761 73.0657 210.091C75.7115 211.42 78.6495 212.051 81.6035 211.922C85.1475 211.839 88.6097 210.832 91.6524 208.999C93.0682 208.112 94.3978 207.103 95.6927 206.111L99.4567 203.293L106.363 198.074H106.467C110.159 199.534 114.133 200.129 118.087 199.813C120.982 199.595 123.825 198.92 126.513 197.813C128.163 197.129 129.752 196.302 131.261 195.342C132.349 194.768 132.884 194.42 132.884 194.42Z" fill="#323949"/>
<path d="M177.742 86.1575L163.531 96.8916L130.07 91.916C128.471 91.6813 126.843 91.768 125.278 92.1711C123.713 92.5742 122.243 93.2858 120.953 94.2646L79.7042 125.423C77.5182 127.071 76.0663 129.522 75.664 132.243L70.4841 167.142L65.9259 170.621C64.465 171.769 63.5142 173.452 63.2813 175.304C63.0483 177.155 63.5522 179.024 64.6827 180.503L77.4424 197.657C77.9868 198.393 78.6704 199.013 79.4537 199.481C80.2371 199.95 81.1047 200.258 82.0067 200.387C82.9086 200.517 83.8271 200.465 84.7091 200.235C85.5911 200.005 86.4193 199.602 87.146 199.048L103.221 186.87C100.309 182.731 99.1165 177.611 99.8959 172.599C100.675 167.587 103.366 163.08 107.394 160.037C111.422 156.994 116.471 155.655 121.464 156.307C126.457 156.958 131 159.547 134.127 163.523L170.006 136.436C166.934 132.304 165.616 127.111 166.343 122C167.07 116.889 169.782 112.279 173.882 109.183C177.983 106.087 183.137 104.759 188.209 105.491C193.281 106.224 197.857 108.957 200.93 113.088L206.714 108.722C208.195 107.566 209.161 105.866 209.4 103.995C209.64 102.123 209.133 100.232 207.992 98.7357L201.085 89.5152C198.42 85.9675 194.471 83.6242 190.099 82.9954C185.727 82.3666 181.286 83.5031 177.742 86.1575Z" fill="#02B9CE"/>
<path d="M130.294 167.873C131.935 170.074 132.892 172.717 133.042 175.467C133.192 178.216 132.53 180.949 131.138 183.319C129.746 185.689 127.688 187.59 125.224 188.78C122.76 189.971 120 190.399 117.295 190.009C114.589 189.619 112.059 188.43 110.025 186.591C107.991 184.752 106.544 182.346 105.867 179.678C105.19 177.01 105.314 174.2 106.223 171.603C107.132 169.006 108.785 166.739 110.973 165.089C113.903 162.88 117.583 161.932 121.205 162.454C124.827 162.976 128.096 164.925 130.294 167.873Z" fill="#02B9CE"/>
<path d="M196.872 117.612C198.514 119.814 199.47 122.456 199.62 125.206C199.771 127.956 199.108 130.688 197.716 133.058C196.325 135.428 194.266 137.329 191.802 138.52C189.338 139.711 186.579 140.138 183.873 139.749C181.168 139.359 178.638 138.169 176.604 136.33C174.569 134.491 173.122 132.085 172.446 129.417C171.769 126.749 171.893 123.939 172.802 121.342C173.711 118.745 175.364 116.478 177.552 114.828C180.481 112.619 184.161 111.671 187.783 112.193C191.406 112.715 194.675 114.664 196.872 117.612Z" fill="#02B9CE"/>
<path d="M85.2465 156.565C84.7005 156.978 84.0454 157.218 83.3639 157.255C82.6825 157.293 82.0053 157.126 81.4178 156.776C80.8303 156.426 80.3589 155.909 80.0631 155.289C79.7673 154.669 79.6604 153.975 79.7559 153.294L80.93 144.874L83.0365 132.383C83.1226 131.86 83.4075 131.392 83.8307 131.078L98.8868 119.718C99.0987 119.556 99.3401 119.439 99.5972 119.372C99.8542 119.304 100.122 119.289 100.385 119.326C100.648 119.363 100.901 119.452 101.13 119.588C101.359 119.724 101.559 119.904 101.718 120.118L111.94 133.844C112.262 134.28 112.4 134.828 112.322 135.366C112.244 135.904 111.958 136.389 111.526 136.715L85.2465 156.565Z" fill="white"/>
<path d="M107.071 116.238L117.137 129.773C117.483 130.231 117.994 130.533 118.56 130.614C119.125 130.696 119.699 130.55 120.159 130.208L148.959 108.427C149.185 108.257 149.376 108.044 149.52 107.8C149.664 107.555 149.759 107.285 149.799 107.004C149.839 106.722 149.824 106.436 149.753 106.161C149.683 105.885 149.56 105.627 149.39 105.4L147.163 102.39C146.83 101.947 146.342 101.649 145.799 101.555L127.998 98.5451C127.697 98.4896 127.388 98.498 127.09 98.5699C126.793 98.6418 126.514 98.7756 126.271 98.9627L107.503 113.194C107.049 113.542 106.749 114.057 106.668 114.627C106.587 115.196 106.732 115.775 107.071 116.238Z" fill="white"/>
<path d="M270.979 105.695L212.032 87.3237C205.912 85.4205 199.292 86.0427 193.627 89.0534C187.961 92.0642 183.714 97.2174 181.816 103.381L141.482 234.591C139.588 240.76 140.203 247.435 143.192 253.147C146.18 258.86 151.298 263.142 157.419 265.054L216.348 283.443C222.471 285.351 229.095 284.732 234.764 281.721C240.434 278.71 244.684 273.553 246.582 267.385L286.915 136.175C287.856 133.119 288.189 129.907 287.897 126.721C287.605 123.536 286.694 120.439 285.214 117.609C283.734 114.778 281.715 112.269 279.272 110.225C276.83 108.181 274.012 106.642 270.979 105.695ZM248.878 126.572L219.284 117.334C218.356 117.045 217.495 116.575 216.748 115.95C216 115.326 215.383 114.559 214.93 113.694C214.477 112.829 214.198 111.882 214.108 110.908C214.018 109.934 214.119 108.952 214.406 108.018C214.693 107.083 215.16 106.215 215.779 105.462C216.399 104.71 217.16 104.087 218.019 103.631C218.877 103.175 219.817 102.893 220.783 102.802C221.75 102.712 222.725 102.814 223.652 103.103L253.246 112.341C254.174 112.63 255.035 113.1 255.782 113.725C256.529 114.349 257.147 115.116 257.6 115.981C258.053 116.846 258.332 117.793 258.422 118.767C258.512 119.741 258.411 120.723 258.124 121.657C257.837 122.592 257.37 123.46 256.751 124.213C256.131 124.965 255.37 125.588 254.511 126.044C253.653 126.5 252.713 126.782 251.747 126.872C250.78 126.963 249.805 126.861 248.878 126.572Z" fill="#323949"/>
<path d="M189.649 134.354L164.116 217.412C162.635 222.231 165.311 227.347 170.093 228.839L226.236 246.361C231.018 247.854 236.095 245.157 237.577 240.339L263.109 157.281C264.591 152.462 261.915 147.346 257.133 145.854L200.99 128.332C196.208 126.839 191.13 129.535 189.649 134.354Z" fill="#545E76"/>
<path d="M267.836 183.061C267.836 183.305 245.598 176.607 218.317 168.1C191.036 159.592 169.005 152.442 169.074 152.251C169.143 152.059 191.313 158.705 218.593 167.23C245.874 175.754 267.905 182.835 267.836 183.061Z" fill="#545E76"/>
<path d="M256.717 219.212C256.717 219.456 234.892 212.88 208.112 204.529C181.333 196.178 159.767 189.202 159.767 188.872C159.767 188.541 181.592 195.222 208.371 203.572C235.151 211.923 256.803 218.986 256.717 219.212Z" fill="#545E76"/>
<path d="M231.646 264.115C231.077 265.945 229.983 267.565 228.501 268.769C227.019 269.973 225.217 270.708 223.32 270.881C221.424 271.054 219.52 270.657 217.848 269.74C216.176 268.823 214.81 267.428 213.925 265.73C213.039 264.032 212.672 262.108 212.87 260.2C213.069 258.292 213.824 256.487 215.04 255.011C216.257 253.535 217.879 252.456 219.704 251.909C221.529 251.361 223.473 251.371 225.292 251.937C226.506 252.311 227.634 252.925 228.611 253.741C229.589 254.557 230.396 255.56 230.987 256.692C231.577 257.824 231.94 259.063 232.053 260.337C232.166 261.611 232.028 262.895 231.646 264.115Z" fill="#E0E0E0"/>
<path d="M212.36 275.858C212.36 275.858 212.792 275.858 213.638 276.137C214.069 276.224 214.57 276.398 215.209 276.485L217.419 276.798C218.248 276.798 219.146 276.902 220.233 276.902C221.39 276.871 222.543 276.766 223.687 276.589C226.491 276.187 229.206 275.304 231.715 273.979C234.867 272.346 237.643 270.064 239.865 267.282C240.493 266.509 241.07 265.695 241.592 264.846C241.851 264.411 242.127 263.976 242.386 263.524L243.076 262.115C243.968 260.105 244.701 258.029 245.269 255.904L254.369 226.067C261.137 203.955 269.2 177.651 278.127 148.441C278.697 146.701 279.249 144.77 279.853 142.926C280.467 141.098 280.963 139.233 281.338 137.341C282.009 133.494 281.802 129.544 280.734 125.79C279.613 121.923 277.598 118.379 274.855 115.449C272.112 112.518 268.718 110.285 264.953 108.932C249.258 103.904 232.872 98.8934 216.159 93.6394C212.047 92.3938 207.694 92.1906 203.485 93.0479C199.336 93.9383 195.472 95.8578 192.245 98.6324C189.054 101.343 186.599 104.827 185.114 108.758C183.715 112.689 182.593 116.778 181.333 120.727L167.105 166.586L154.311 208.044L148.51 226.833C146.39 232.481 146.268 238.693 148.164 244.421C149.902 249.611 153.234 254.108 157.678 257.261C161.874 260.27 166.743 261.297 171.059 262.741L193.367 269.787L207.456 274.258L211.117 275.458C211.946 275.719 212.36 275.893 212.36 275.893L211.1 275.545L207.405 274.432L193.264 270.117L170.818 263.158L164.067 261.053C161.653 260.255 159.363 259.119 157.264 257.678C153.763 255.219 150.914 251.934 148.963 248.11C147.013 244.286 146.022 240.039 146.075 235.74C146.075 234.975 146.075 234.209 146.196 233.444C146.317 232.678 146.421 231.895 146.541 231.13C146.887 229.599 147.284 228.068 147.767 226.572L153.517 207.765C157.488 194.77 161.753 180.887 166.225 166.29C170.697 151.694 175.41 136.35 180.279 120.449C181.54 116.482 182.645 112.463 184.078 108.427C185.632 104.377 188.173 100.787 191.468 97.9887C194.807 95.1231 198.8 93.1384 203.088 92.2128C207.452 91.3235 211.967 91.5387 216.228 92.8391C232.941 98.0583 249.275 103.086 265.039 108.131C268.926 109.533 272.429 111.839 275.264 114.862C278.1 117.885 280.186 121.54 281.356 125.529C282.45 129.415 282.657 133.502 281.96 137.48C281.582 139.409 281.074 141.31 280.44 143.169C279.888 145.014 279.318 146.84 278.714 148.667L254.887 226.259C251.433 237.289 248.377 247.275 245.666 256.043C245.082 258.194 244.326 260.295 243.405 262.323C243.18 262.793 242.938 263.28 242.697 263.75C242.455 264.22 242.161 264.637 241.885 265.089C241.367 265.947 240.79 266.766 240.158 267.542C236.029 272.63 230.147 275.96 223.687 276.867C222.542 277.027 221.389 277.114 220.233 277.128C219.18 277.128 218.23 277.024 217.402 276.972L215.192 276.624C214.553 276.502 214.035 276.328 213.62 276.224C212.774 275.998 212.36 275.858 212.36 275.858Z" fill="#545E76"/>
<path d="M254.61 179.285C254.61 179.529 238.208 174.64 218.144 168.377C198.081 162.114 181.885 156.843 181.885 156.599C181.885 156.356 198.288 161.244 218.351 167.507C238.415 173.77 254.697 179.042 254.61 179.285Z" fill="#323949"/>
<path d="M243.526 214.846C243.439 215.089 227.157 210.218 207.146 203.972C187.134 197.727 170.887 192.473 171.042 192.229C171.198 191.986 187.393 196.857 207.405 203.103C227.416 209.348 243.595 214.602 243.526 214.846Z" fill="#323949"/>
<path d="M167.244 218.273C167.002 218.186 172.078 201.015 178.553 179.912C185.028 158.809 190.501 141.638 190.743 141.812C190.985 141.986 185.909 159.053 179.416 180.086C172.924 201.119 167.468 218.343 167.244 218.273Z" fill="#323949"/>
<path d="M233.321 238.558C233.079 238.558 238.104 221.439 244.544 200.493C250.984 179.546 256.406 162.619 256.63 162.706C256.855 162.793 251.848 179.807 245.407 200.771C238.967 221.735 233.563 238.628 233.321 238.558Z" fill="#323949"/>
<path d="M221.477 69.5782C221.477 69.5782 221.995 68.5866 222.357 67.9777C223.016 66.8512 223.749 65.7702 224.55 64.7418C224.654 64.6026 224.982 64.0459 225.154 63.9763C225.327 63.9067 224.619 64.5852 225.034 64.1503C225.116 64.0324 225.209 63.9218 225.31 63.8197C225.776 63.2978 226.259 62.7759 226.76 62.2888C227.663 61.4052 228.62 60.5801 229.626 59.8184C229.626 59.8184 230.231 59.2965 230.282 59.3313C230.334 59.366 229.713 59.7314 230.127 59.453L230.559 59.1573C231.111 58.7919 231.664 58.4614 232.285 58.1308C233.373 57.5105 234.497 56.9585 235.652 56.4781L236.032 56.3215H236.222C235.98 56.5825 236.101 56.3215 236.326 56.3215L236.809 56.1476L238.536 55.5908C239.792 55.2524 241.066 54.9852 242.352 54.7906L243.301 54.6688C243.439 54.6528 243.578 54.6528 243.716 54.6688C243.336 54.5644 243.163 54.6688 243.526 54.6688C244.199 54.6688 244.89 54.5644 245.563 54.547C246.912 54.5123 248.261 54.5646 249.603 54.7036C250.225 54.7036 250.846 54.8254 251.468 54.9297C251.606 54.9297 252.09 54.9297 251.606 54.9297C251.123 54.9297 251.762 54.9297 251.831 54.9297L252.936 55.1559C254.28 55.4473 255.606 55.8191 256.907 56.2693C257.563 56.4781 258.185 56.7217 258.823 56.9826L259.635 57.3306C259.778 57.3838 259.916 57.4477 260.049 57.5219C259.41 57.0174 259.808 57.4176 260.049 57.5219C261.238 58.1085 262.391 58.7649 263.503 59.4878C264.055 59.8532 264.59 60.2185 265.108 60.6187L265.799 61.1406L266.213 61.4885C266.023 61.2971 266.8 61.9408 266.213 61.4885C267.18 62.3584 268.113 63.2282 268.993 64.1851C269.879 65.1619 270.715 66.1839 271.497 67.247C271.669 67.508 271.756 67.3862 271.376 67.0904C271.473 67.1934 271.555 67.3108 271.618 67.4384C271.808 67.7167 271.98 67.9777 272.136 68.2561C272.498 68.8128 272.844 69.4043 273.172 69.9958C273.818 71.1187 274.394 72.2807 274.898 73.4752C275.049 73.721 275.154 73.9921 275.209 74.2755C275.071 73.8754 275.209 73.6666 275.209 74.2755L275.399 74.7974C275.589 75.4063 275.779 76.0152 275.951 76.6415C276.286 77.8841 276.551 79.1445 276.746 80.4167C276.746 80.7821 276.849 81.13 276.884 81.4954C276.901 81.6399 276.901 81.7858 276.884 81.9303C276.884 81.9303 276.884 81.1474 276.884 81.7389C276.884 82.3304 276.987 83.1133 277.005 83.7918C277.025 85.1163 276.967 86.4408 276.832 87.7584C276.832 88.0889 276.832 88.4195 276.728 88.75C276.625 89.0806 276.728 89.4807 276.59 89.6373L276.677 89.2198C276.667 89.3297 276.667 89.4403 276.677 89.5503L276.573 90.107C276.573 90.4724 276.418 90.8377 276.331 91.203C276.019 92.5419 275.627 93.8607 275.157 95.1522C274.933 95.7437 274.691 96.3526 274.432 96.8919C274.375 97.0732 274.3 97.2481 274.208 97.4139C274.208 97.4139 274.553 96.6832 274.294 97.2225L273.793 98.2141C273.187 99.4158 272.507 100.578 271.756 101.694C271.376 102.233 270.996 102.755 270.599 103.259C270.461 103.451 270.254 103.851 270.064 103.938L270.323 103.625L270.116 103.868L269.753 104.286C268.876 105.28 267.936 106.215 266.939 107.087C266.49 107.487 266.023 107.87 265.557 108.252L264.798 108.826C264.677 108.826 264.487 109.122 264.366 109.157C264.608 109.157 264.867 108.792 264.366 109.157C263.257 109.802 262.116 110.389 260.947 110.914C260.412 111.192 259.877 111.453 259.324 111.697L258.444 112.08C258.142 112.271 257.808 112.406 257.459 112.48C257.459 112.48 258.185 112.219 257.632 112.48L257.235 112.619L256.32 112.932C255.681 113.124 255.025 113.315 254.386 113.472C253.135 113.781 251.866 114.013 250.588 114.167H250.052C249.621 114.167 250.691 114.167 250.259 114.167C249.828 114.167 249.603 114.167 249.275 114.167C248.636 114.167 247.98 114.167 247.341 114.167C245.985 114.153 244.63 114.06 243.284 113.889C242.973 113.889 242.628 113.767 242.3 113.75H242.507H242.058C241.316 113.611 240.59 113.437 239.865 113.245C238.324 112.828 236.812 112.305 235.341 111.68C235.117 111.68 234.219 111.158 234.858 111.471C234.478 111.279 234.098 111.106 233.736 110.897C232.959 110.497 232.199 110.044 231.457 109.575C230.714 109.105 230.093 108.67 229.436 108.165L228.573 107.504L228.141 107.156C228.729 107.626 228.038 107.052 227.969 107C226.736 105.925 225.582 104.763 224.516 103.52C223.931 102.891 223.125 102.517 222.27 102.478C221.415 102.439 220.579 102.738 219.94 103.312C219.323 103.906 218.958 104.716 218.919 105.575C218.881 106.433 219.172 107.274 219.733 107.922C225.686 115.473 234.372 120.332 243.881 121.429C253.389 122.527 262.941 119.774 270.435 113.776C277.929 107.778 282.751 99.0256 283.841 89.4449C284.93 79.8642 282.198 70.2398 276.245 62.6889C272.676 57.8879 268.008 54.0278 262.638 51.4377C257.269 48.8476 251.357 47.6045 245.408 47.8143C239.594 47.9435 233.907 49.5561 228.879 52.5012C223.852 55.4463 219.648 59.6278 216.659 64.6548C216.008 65.5666 215.517 66.5848 215.209 67.6645C217.388 67.9532 219.505 68.5996 221.477 69.5782Z" fill="#E0E0E0"/>
<path d="M221.477 69.5783C221.002 69.3322 220.512 69.1172 220.009 68.9346C218.463 68.4278 216.873 68.0667 215.261 67.856H215.123V67.7342C215.428 66.6341 215.925 65.5974 216.59 64.6723C218.424 61.5117 220.757 58.6735 223.497 56.2694C227.219 53.0007 231.594 50.5744 236.326 49.1539C242.209 47.3735 248.442 47.1043 254.455 48.371C261.515 49.8508 268.005 53.3408 273.154 58.4266C277.58 62.8832 280.797 68.4101 282.496 74.478C284.195 80.5459 284.32 86.9517 282.858 93.082C281.773 97.5336 279.869 101.741 277.246 105.486C274.437 109.564 270.836 113.024 266.66 115.657C262.484 118.29 257.82 120.041 252.953 120.804C248.085 121.567 243.114 121.326 238.342 120.096C233.569 118.865 229.095 116.671 225.189 113.646C223.586 112.419 222.09 111.057 220.717 109.575L219.698 108.461C219.314 108.069 219.014 107.601 218.818 107.087C218.623 106.556 218.55 105.988 218.604 105.424C218.658 104.861 218.837 104.317 219.129 103.833C219.417 103.351 219.811 102.942 220.281 102.637C220.75 102.332 221.283 102.139 221.838 102.073C222.393 102.008 222.956 102.071 223.483 102.259C224.01 102.446 224.487 102.753 224.878 103.155L226.898 105.243L227.9 106.269C228.052 106.446 228.214 106.614 228.383 106.774L228.677 107C228.297 107.122 229.454 106.634 228.107 107.696H228.021L227.882 107.574L228.435 106.878C229.471 107.748 230.559 108.461 231.647 109.209C232.734 109.957 233.891 110.566 235.1 111.14L234.703 111.941H234.582H234.495C234.44 111.898 234.393 111.845 234.357 111.784C234.337 111.722 234.337 111.655 234.357 111.593C234.354 111.485 234.391 111.379 234.461 111.297C234.498 111.25 234.546 111.211 234.599 111.184C234.653 111.157 234.712 111.142 234.772 111.14C235.082 111.14 234.944 111.14 234.979 111.14L235.238 111.262C235.405 111.349 235.578 111.424 235.756 111.488L236.844 111.854L238.985 112.602C239.683 112.879 240.405 113.089 241.143 113.228L242.231 113.489L242.783 113.593H242.904C243.094 112.845 242.576 114.62 242.749 114.463H242.524H242.3V113.576C243.819 113.837 245.183 113.802 246.599 113.941C247.306 113.985 248.015 113.985 248.723 113.941H249.793H250.38C250.38 113.941 250.622 113.941 250.76 114.289C250.898 114.637 250.622 114.672 250.622 114.707C250.603 114.715 250.582 114.719 250.562 114.719C250.541 114.719 250.52 114.715 250.501 114.707H249.828C249.828 114.707 249.621 114.707 249.586 114.237C249.551 113.767 249.914 113.924 249.914 113.872H250.069C251.468 113.68 252.815 113.385 254.196 113.141C254.869 112.984 255.526 112.776 256.182 112.602L257.166 112.289L257.667 112.115C257.753 112.115 257.494 112.115 257.874 112.115C258.098 113.68 257.874 112.567 257.96 112.915H257.822C257.695 112.967 257.561 113.002 257.425 113.019V112.149C257.711 112.074 257.984 111.957 258.236 111.801L259.186 111.384C259.808 111.053 260.464 110.792 261.051 110.444L262.777 109.366L263.675 108.844L264.124 108.566L264.314 108.461H264.418C264.485 108.456 264.552 108.465 264.615 108.489C264.677 108.513 264.734 108.551 264.78 108.6C264.828 108.647 264.862 108.705 264.88 108.769C264.898 108.833 264.9 108.901 264.884 108.966C264.884 109.14 264.884 109.122 264.884 109.14C264.85 109.148 264.814 109.148 264.78 109.14C264.672 109.231 264.54 109.292 264.4 109.314L264.228 108.496C264.124 108.496 264.331 108.496 264.469 108.27L264.884 107.957L265.678 107.313C266.207 106.899 266.709 106.452 267.18 105.973C268.095 105.017 269.114 104.129 269.96 103.12L270.582 103.66L270.323 103.973L269.839 103.329C269.839 103.329 270.133 102.877 270.34 102.598L270.979 101.728C271.395 101.174 271.776 100.593 272.118 99.9887L273.206 98.249C273.396 97.9532 273.551 97.6227 273.707 97.3269L273.949 96.8398C273.517 96.4745 275.002 96.979 274.656 97.1703V97.2921C274.615 97.4046 274.557 97.5102 274.484 97.6053L273.776 96.9964L274.553 95.0827C274.812 94.4042 274.985 93.7083 275.192 93.0472L275.813 91.0117C275.969 90.3332 276.107 89.6373 276.228 88.9588L277.005 89.098V89.5156L276.314 89.2024C276.314 88.5413 276.435 87.8802 276.487 87.2365C276.539 86.5928 276.487 85.8099 276.573 85.114C276.616 84.413 276.616 83.71 276.573 83.009V81.9651V81.4432V81.3388C276.28 81.0779 277.747 81.0257 277.315 81.3388V81.5476C277.336 81.6626 277.336 81.7805 277.315 81.8955L276.573 81.7738C276.389 80.3816 276.136 78.9996 275.813 77.6332C275.696 76.9474 275.523 76.2724 275.295 75.6151C275.192 75.2672 275.105 74.9366 275.002 74.6061C274.919 74.4232 274.861 74.2302 274.829 74.032V73.9102C274.823 73.8757 274.823 73.8404 274.829 73.8058C274.85 73.7354 274.885 73.6702 274.933 73.6145C275 73.571 275.078 73.5479 275.157 73.5479C275.237 73.5479 275.315 73.571 275.382 73.6145H275.468C275.623 73.8928 275.468 73.8232 275.589 73.9276V74.2234H274.881C274.773 73.9311 274.646 73.6464 274.501 73.3709L274.069 72.4314C273.776 71.8225 273.482 71.2136 273.206 70.6917C272.636 69.5435 271.842 68.3083 271.272 67.4036L270.167 65.6639L271.687 66.8817C271.795 66.9495 271.889 67.0382 271.963 67.1427C272 67.1768 272.029 67.2183 272.049 67.2645C272.049 67.2645 272.049 67.2645 272.049 67.3514C272.076 67.4245 272.076 67.5046 272.049 67.5776C272.018 67.6246 271.977 67.6645 271.93 67.6944C271.882 67.7244 271.829 67.7439 271.773 67.7516H271.652H271.549C271.468 67.7013 271.398 67.6364 271.341 67.5602L270.979 67.1079L270.254 66.2206L268.838 64.4809L266.179 61.8713C265.087 60.9831 263.933 60.1749 262.726 59.4531L260.999 58.444L260.118 57.9395C259.948 57.8499 259.786 57.7451 259.635 57.6264V57.5394C259.608 57.4918 259.593 57.4378 259.593 57.3828C259.593 57.3278 259.608 57.2738 259.635 57.2262C259.894 56.9131 259.859 57.0871 259.928 57.0349C259.998 56.9827 260.101 57.0349 260.084 57.0349L260.205 57.1219L260.412 57.2784L262.38 58.8094L260.032 57.7655C258.533 57.0461 256.973 56.4638 255.37 56.0258L252.884 55.3473L251.744 55.1212H251.468H251.261C251.347 54.0599 251.347 54.808 251.347 54.5818H251.831C251.831 54.0947 251.969 55.2255 251.831 55.1386H251.503C250.044 54.931 248.573 54.8148 247.1 54.7906C246.392 54.7906 245.684 54.7036 245.011 54.7906H243.975H243.267C243.213 54.7575 243.171 54.709 243.146 54.6514C243.146 54.6514 243.146 54.3731 243.146 54.3557H243.232H243.457C243.559 54.3375 243.665 54.3375 243.767 54.3557L244.993 54.6862L243.646 54.8254C242.265 54.9646 240.763 55.3473 239.485 55.5909C238.847 55.7059 238.218 55.8687 237.603 56.078L236.705 56.339L236.291 56.4955H236.153C236.153 56.4955 236.153 56.4955 236.153 56.3564C236.153 56.2172 236.153 56.2694 236.067 56.1998C235.98 56.1302 235.825 56.1998 235.859 56.1998H235.998C235.998 56.1998 236.308 56.2868 236.257 56.4086C236.257 56.4488 236.246 56.4883 236.224 56.5222C236.203 56.5562 236.172 56.5832 236.136 56.5999H236.049L235.79 56.7043C235.612 56.7659 235.439 56.8415 235.272 56.9305L234.288 57.4002L232.475 58.2701C231.928 58.5453 231.398 58.8532 230.887 59.1921L230.144 59.6444L229.782 59.888H229.661C229.661 59.888 229.661 59.888 229.523 59.888C229.385 59.888 229.523 59.714 229.523 59.6966H229.626H229.713C229.713 59.6966 229.713 59.6966 229.92 59.6966L229.73 59.975C229.972 59.975 229.816 59.975 229.834 59.975L229.713 60.062L229.488 60.2534L229.022 60.6361L228.159 61.3668L226.985 62.2018C226.501 62.6194 226.121 63.0717 225.724 63.4718L225.154 64.0634L225.016 64.2199C225.016 64.2199 225.016 64.3591 224.826 64.1155C224.921 64.0024 225.025 63.8977 225.137 63.8024L225.724 63.3501L225.206 64.0286C223.911 65.7683 222.927 67.2297 222.323 68.1169L221.494 69.5087C221.494 69.5087 221.736 69.0042 222.236 68.0473C222.495 67.5776 222.91 67.0035 223.359 66.3076L224.136 65.1594L224.55 64.5157C224.693 64.2432 224.893 64.0057 225.137 63.8198V63.9416L225.016 64.0808C224.723 63.8198 224.895 63.959 224.861 63.9242L224.999 63.7676C225.169 63.5519 225.354 63.3484 225.552 63.1587C225.931 62.7586 226.329 62.2888 226.795 61.8539L228.366 60.4795L229.212 59.7314L229.661 59.3487L229.903 59.1573L230.041 59.0529C230.041 59.0529 230.041 59.0529 230.3 59.0529L230.162 59.1921C230.162 59.1921 230.162 59.2965 230.162 59.3487H230.075H229.989C229.92 59.254 229.856 59.1553 229.799 59.0529L230.144 58.8094L230.887 58.3397C231.403 57.9948 231.939 57.6812 232.493 57.4002L234.323 56.4955L235.29 56.0084L235.825 55.7823L236.084 55.6779C236.084 55.6779 236.084 55.6779 236.084 55.7997C236.084 55.9214 236.239 55.7997 236.084 55.7997C235.928 55.7997 236.084 55.9736 236.084 55.991H235.946H236.032L235.928 56.078C235.897 56.0948 235.861 56.1035 235.825 56.1035C235.789 56.1035 235.753 56.0948 235.721 56.078C235.692 56.0631 235.667 56.0409 235.649 56.0134C235.631 55.986 235.62 55.9543 235.618 55.9214C235.618 55.7475 235.618 55.7649 235.618 55.7649C235.691 55.6931 235.779 55.6395 235.877 55.6083L236.308 55.4517L237.206 55.1734C237.833 54.9584 238.474 54.7841 239.123 54.6514L241.177 54.2165C241.943 54.033 242.723 53.9166 243.508 53.8686L243.387 54.3383H243.198V54.1991C243.198 54.0947 243.198 54.1991 243.198 54.0077C243.198 53.8164 243.198 54.0077 243.198 53.9034H243.681H244.7C245.408 53.9034 246.116 53.9034 246.841 53.9034C248.331 53.9154 249.818 54.02 251.295 54.2165H251.572C251.347 54.4427 251.572 54.6514 251.572 54.7558H251.209C251.2 54.6516 251.2 54.5468 251.209 54.4427C251.209 54.1295 251.209 54.2165 251.209 54.1991H251.313H251.606L252.78 54.4253L255.128 55.0864C256.802 55.5118 258.432 56.0942 259.998 56.8261L259.618 57.3132L259.428 57.1566H259.341C259.341 57.1566 259.428 56.9653 259.549 56.8261L259.704 56.6869C259.813 56.7762 259.929 56.8576 260.049 56.9305L260.93 57.435L262.743 58.444C263.948 59.1814 265.102 60.001 266.196 60.8971L269.287 63.9416C269.747 64.5331 270.231 65.113 270.737 65.6813L271.462 66.586L271.825 67.0209C271.998 67.0209 271.531 67.4732 271.376 67.4732C271.332 67.4188 271.279 67.3718 271.221 67.334L271.635 66.7773C273.227 69.0867 274.537 71.5809 275.537 74.206H274.829V73.9798C274.829 73.9798 274.726 73.9798 275.123 73.8406C275.123 73.8406 275.278 73.8406 275.433 73.8406C275.461 73.9832 275.502 74.123 275.554 74.2582C275.675 74.5887 275.762 74.9366 275.882 75.2672C276.105 75.9448 276.284 76.6364 276.418 77.3375C276.771 78.7979 277.031 80.2797 277.195 81.7738H276.798C276.695 81.748 276.589 81.748 276.487 81.7738V81.3388C276.608 81.3388 276.815 81.2345 276.97 81.3388H277.229V81.9129V82.9742C277.272 83.6926 277.272 84.413 277.229 85.1314C277.229 85.8447 277.229 86.5754 277.143 87.3061C277.143 87.6714 277.143 88.0368 277.039 88.4021C276.936 88.7675 277.039 88.7153 277.039 88.924C277.057 89.1929 276.991 89.4607 276.849 89.6895L275.796 91.5684L276.159 89.3764V88.9588L276.936 89.098C276.815 89.7939 276.659 90.4898 276.504 91.1857L275.882 93.2734C275.658 93.9692 275.485 94.6825 275.226 95.361L274.812 96.3875L274.605 96.9094C274.545 97.1202 274.451 97.3199 274.328 97.5009L273.983 97.2225C273.904 97.1547 273.817 97.0963 273.724 97.0486V96.9268V96.8224C273.724 96.8224 273.638 96.8224 273.88 96.8224C274.075 96.8692 274.257 96.9583 274.415 97.0834L274.173 97.5705C274.03 97.8961 273.863 98.2101 273.672 98.5099L272.74 100.476C272.391 101.117 271.999 101.733 271.566 102.32L270.927 103.207C270.668 103.468 270.72 103.747 270.098 104.181L267.577 105.921L269.615 103.468L269.891 103.155L270.513 103.694C269.649 104.738 268.613 105.643 267.664 106.634C267.18 107.124 266.667 107.583 266.127 108.009C265.868 108.238 265.598 108.453 265.316 108.653L264.918 108.966C264.756 109.139 264.554 109.27 264.331 109.348L264.159 108.548C264.159 108.548 264.159 108.548 264.28 108.67C264.328 108.731 264.387 108.784 264.452 108.827C264.452 108.827 264.452 108.931 264.452 109C264.452 109.07 264.556 109.192 264.539 109.227L264.107 109.488L263.209 110.027L261.482 111.123C260.878 111.488 260.222 111.767 259.583 112.08L258.599 112.515C258.25 112.731 257.863 112.878 257.459 112.95V112.497C257.477 112.417 257.477 112.334 257.459 112.254C257.459 112.045 257.459 112.097 257.459 112.097H257.58H257.684C257.787 112.32 257.868 112.554 257.926 112.793C257.926 112.932 257.926 112.897 257.926 112.897L257.425 113.054L256.423 113.385C255.75 113.576 255.059 113.785 254.369 113.959C252.987 114.202 251.572 114.515 250.156 114.707C250.156 114.829 250.035 114.376 250.156 114.289C250.173 114.233 250.173 114.172 250.156 114.115C250.156 113.854 250.156 113.959 250.156 113.941H250.449C250.461 114.01 250.461 114.081 250.449 114.15C250.432 114.201 250.432 114.256 250.449 114.307V114.742H249.983H248.913C248.188 114.785 247.462 114.785 246.737 114.742C245.321 114.62 243.767 114.62 242.421 114.394V113.506H242.766H242.921C243.077 113.35 242.559 115.124 242.749 114.376H242.524L241.972 114.272L240.832 114.011C240.078 113.863 239.338 113.648 238.622 113.367L236.395 112.654L235.29 112.271C235.107 112.206 234.928 112.131 234.754 112.045L234.495 111.923C234.495 111.923 234.392 111.923 234.668 111.923C234.944 111.923 234.893 111.593 234.789 111.575C234.599 111.575 234.685 111.558 234.789 111.575C234.979 111.575 235.082 111.28 235.013 111.262H235.134L234.737 112.062C233.546 111.488 232.389 110.775 231.284 110.097C230.179 109.418 229.039 108.566 228.003 107.696L228.556 107L228.711 107.104C228.711 107.104 228.711 107.104 228.539 107.33C228.366 107.557 228.021 107.887 228.141 107.783L227.865 107.557C227.675 107.383 227.52 107.209 227.347 107.017L226.311 105.973L224.274 103.851C223.974 103.556 223.611 103.333 223.214 103.198C222.817 103.063 222.395 103.02 221.978 103.072C221.562 103.124 221.163 103.269 220.81 103.497C220.457 103.725 220.16 104.031 219.94 104.39C219.718 104.754 219.583 105.165 219.544 105.59C219.505 106.016 219.564 106.444 219.716 106.843C220.161 107.674 220.745 108.422 221.442 109.053C222.782 110.5 224.243 111.827 225.811 113.019C229.623 115.968 233.99 118.107 238.646 119.308C243.302 120.508 248.152 120.745 252.902 120.003C257.651 119.262 262.202 117.558 266.28 114.994C270.358 112.43 273.877 109.059 276.625 105.086C279.198 101.41 281.061 97.2789 282.115 92.908C283.561 86.9119 283.455 80.6423 281.808 74.6993C280.16 68.7563 277.026 63.339 272.705 58.966C267.673 53.9472 261.313 50.4928 254.386 49.0147C248.479 47.7379 242.348 47.9652 236.55 49.6758C231.87 51.0682 227.534 53.4395 223.825 56.6347C221.102 58.9894 218.771 61.7674 216.918 64.8636C216.264 65.7504 215.767 66.7453 215.451 67.8038V67.6646C217.076 67.8971 218.673 68.2994 220.216 68.865C220.594 69.0049 220.958 69.1796 221.304 69.3869C221.365 69.4476 221.423 69.5115 221.477 69.5783Z" fill="#323949"/>
<path d="M209.339 229.111L196.164 225.006L200.239 211.731L213.413 215.837L209.339 229.111ZM198.323 223.892L208.199 226.971L211.255 217.02L201.379 213.941L198.323 223.892Z" fill="#02B9CE"/>
<path d="M230.023 163.228L216.867 159.122L220.941 145.848L234.116 149.954L230.023 163.228ZM219.025 158.009L228.901 161.088L231.957 151.137L222.081 148.057L219.025 158.009Z" fill="#02B9CE"/>
<path d="M215.209 193.951C214.472 193.945 213.739 193.833 213.033 193.62C212.113 193.335 211.258 192.87 210.517 192.251C209.775 191.633 209.162 190.873 208.713 190.015C208.263 189.157 207.986 188.219 207.897 187.253C207.807 186.287 207.908 185.313 208.193 184.387C208.478 183.46 208.942 182.599 209.557 181.854C210.173 181.108 210.928 180.492 211.78 180.041C212.632 179.589 213.564 179.312 214.523 179.224C215.482 179.136 216.448 179.24 217.367 179.529C219.218 180.11 220.765 181.407 221.668 183.135C222.571 184.864 222.757 186.883 222.184 188.749C221.733 190.246 220.82 191.559 219.578 192.497C218.337 193.436 216.83 193.951 215.278 193.968L215.209 193.951ZM215.209 180.938C214.015 180.934 212.851 181.318 211.89 182.032C210.929 182.746 210.222 183.754 209.874 184.904C209.651 185.611 209.571 186.355 209.639 187.094C209.707 187.832 209.922 188.549 210.271 189.202C210.961 190.519 212.14 191.507 213.551 191.95C214.966 192.391 216.497 192.249 217.808 191.554C219.119 190.859 220.103 189.669 220.544 188.245C220.766 187.538 220.846 186.793 220.781 186.055C220.716 185.316 220.507 184.598 220.165 183.942C219.823 183.285 219.355 182.703 218.789 182.229C218.223 181.756 217.57 181.399 216.866 181.181C216.322 181.022 215.758 180.94 215.192 180.938H215.209Z" fill="#02B9CE"/>
</svg>
