<svg width="736" height="80" viewBox="0 0 736 80" fill="none" xmlns="http://www.w3.org/2000/svg">
<path d="M0 0.00439453H736V68.0044C736 74.6318 730.627 80.0044 724 80.0044H12C5.3726 80.0044 0 74.6318 0 68.0044V0.00439453Z" fill="#F3F3F3"/>
<path d="M320.574 41.7876C320.574 42.8345 320.311 43.6528 319.783 44.2427C319.256 44.8286 318.527 45.1216 317.598 45.1216C317.023 45.1216 316.514 44.9868 316.068 44.7173C315.623 44.4478 315.279 44.061 315.037 43.5571C314.795 43.0532 314.674 42.4634 314.674 41.7876C314.674 40.7407 314.936 39.9263 315.459 39.3442C315.982 38.7583 316.709 38.4653 317.639 38.4653C318.537 38.4653 319.25 38.7642 319.777 39.3618C320.309 39.9595 320.574 40.7681 320.574 41.7876ZM315.682 41.7876C315.682 42.6079 315.846 43.2329 316.174 43.6626C316.502 44.0923 316.984 44.3071 317.621 44.3071C318.258 44.3071 318.74 44.0942 319.068 43.6685C319.4 43.2388 319.566 42.6118 319.566 41.7876C319.566 40.9712 319.4 40.3521 319.068 39.9302C318.74 39.5044 318.254 39.2915 317.609 39.2915C316.973 39.2915 316.492 39.5005 316.168 39.9185C315.844 40.3364 315.682 40.9595 315.682 41.7876ZM326.68 45.0044V40.8501C326.68 40.3267 326.561 39.936 326.322 39.6782C326.084 39.4204 325.711 39.2915 325.203 39.2915C324.531 39.2915 324.039 39.4731 323.727 39.8364C323.414 40.1997 323.258 40.7993 323.258 41.6353V45.0044H322.285V38.5825H323.076L323.234 39.4614H323.281C323.48 39.145 323.76 38.9009 324.119 38.729C324.479 38.5532 324.879 38.4653 325.32 38.4653C326.094 38.4653 326.676 38.6528 327.066 39.0278C327.457 39.3989 327.652 39.9946 327.652 40.8149V45.0044H326.68ZM334.027 44.1431H333.975C333.525 44.7954 332.854 45.1216 331.959 45.1216C331.119 45.1216 330.465 44.8345 329.996 44.2603C329.531 43.686 329.299 42.8696 329.299 41.811C329.299 40.7524 329.533 39.9302 330.002 39.3442C330.471 38.7583 331.123 38.4653 331.959 38.4653C332.83 38.4653 333.498 38.7817 333.963 39.4146H334.039L333.998 38.9517L333.975 38.5005V35.8872H334.947V45.0044H334.156L334.027 44.1431ZM332.082 44.3071C332.746 44.3071 333.227 44.1274 333.523 43.7681C333.824 43.4048 333.975 42.8208 333.975 42.0161V41.811C333.975 40.9009 333.822 40.2524 333.518 39.8657C333.217 39.4751 332.734 39.2798 332.07 39.2798C331.5 39.2798 331.062 39.5024 330.758 39.9478C330.457 40.3892 330.307 41.0142 330.307 41.8228C330.307 42.6431 330.457 43.2622 330.758 43.6802C331.059 44.0981 331.5 44.3071 332.082 44.3071ZM339.729 45.1216C338.779 45.1216 338.029 44.8325 337.479 44.2544C336.932 43.6763 336.658 42.8735 336.658 41.8462C336.658 40.811 336.912 39.9888 337.42 39.3794C337.932 38.77 338.617 38.4653 339.477 38.4653C340.281 38.4653 340.918 38.731 341.387 39.2622C341.855 39.7896 342.09 40.4868 342.09 41.354V41.9692H337.666C337.686 42.7231 337.875 43.2954 338.234 43.686C338.598 44.0767 339.107 44.272 339.764 44.272C340.455 44.272 341.139 44.1274 341.814 43.8384V44.7056C341.471 44.854 341.145 44.9595 340.836 45.022C340.531 45.0884 340.162 45.1216 339.729 45.1216ZM339.465 39.2798C338.949 39.2798 338.537 39.4478 338.229 39.7837C337.924 40.1196 337.744 40.5845 337.689 41.1782H341.047C341.047 40.5649 340.91 40.0962 340.637 39.772C340.363 39.4438 339.973 39.2798 339.465 39.2798ZM351.939 45.0044V40.8267C351.939 40.3149 351.83 39.9321 351.611 39.6782C351.393 39.4204 351.053 39.2915 350.592 39.2915C349.986 39.2915 349.539 39.4653 349.25 39.813C348.961 40.1606 348.816 40.6958 348.816 41.4185V45.0044H347.844V40.8267C347.844 40.3149 347.734 39.9321 347.516 39.6782C347.297 39.4204 346.955 39.2915 346.49 39.2915C345.881 39.2915 345.434 39.4751 345.148 39.8423C344.867 40.2056 344.727 40.8032 344.727 41.6353V45.0044H343.754V38.5825H344.545L344.703 39.4614H344.75C344.934 39.1489 345.191 38.9048 345.523 38.729C345.859 38.5532 346.234 38.4653 346.648 38.4653C347.652 38.4653 348.309 38.8286 348.617 39.5552H348.664C348.855 39.2192 349.133 38.9536 349.496 38.7583C349.859 38.563 350.273 38.4653 350.738 38.4653C351.465 38.4653 352.008 38.6528 352.367 39.0278C352.73 39.3989 352.912 39.9946 352.912 40.8149V45.0044H351.939ZM358.871 45.0044L358.678 44.0903H358.631C358.311 44.4927 357.99 44.7661 357.67 44.9106C357.354 45.0513 356.957 45.1216 356.48 45.1216C355.844 45.1216 355.344 44.9575 354.98 44.6294C354.621 44.3013 354.441 43.8345 354.441 43.229C354.441 41.9321 355.479 41.2524 357.553 41.1899L358.643 41.1548V40.7563C358.643 40.2524 358.533 39.8813 358.314 39.6431C358.1 39.4009 357.754 39.2798 357.277 39.2798C356.742 39.2798 356.137 39.4438 355.461 39.772L355.162 39.0278C355.479 38.856 355.824 38.7212 356.199 38.6235C356.578 38.5259 356.957 38.4771 357.336 38.4771C358.102 38.4771 358.668 38.647 359.035 38.9868C359.406 39.3267 359.592 39.8716 359.592 40.6216V45.0044H358.871ZM356.674 44.3188C357.279 44.3188 357.754 44.1528 358.098 43.8208C358.445 43.4888 358.619 43.0239 358.619 42.4263V41.8462L357.646 41.8872C356.873 41.9146 356.314 42.0356 355.971 42.2505C355.631 42.4614 355.461 42.7915 355.461 43.2407C355.461 43.5923 355.566 43.8599 355.777 44.0435C355.992 44.2271 356.291 44.3188 356.674 44.3188ZM365.996 45.0044V40.8501C365.996 40.3267 365.877 39.936 365.639 39.6782C365.4 39.4204 365.027 39.2915 364.52 39.2915C363.848 39.2915 363.355 39.4731 363.043 39.8364C362.73 40.1997 362.574 40.7993 362.574 41.6353V45.0044H361.602V38.5825H362.393L362.551 39.4614H362.598C362.797 39.145 363.076 38.9009 363.436 38.729C363.795 38.5532 364.195 38.4653 364.637 38.4653C365.41 38.4653 365.992 38.6528 366.383 39.0278C366.773 39.3989 366.969 39.9946 366.969 40.8149V45.0044H365.996ZM373.344 44.1431H373.291C372.842 44.7954 372.17 45.1216 371.275 45.1216C370.436 45.1216 369.781 44.8345 369.312 44.2603C368.848 43.686 368.615 42.8696 368.615 41.811C368.615 40.7524 368.85 39.9302 369.318 39.3442C369.787 38.7583 370.439 38.4653 371.275 38.4653C372.146 38.4653 372.814 38.7817 373.279 39.4146H373.355L373.314 38.9517L373.291 38.5005V35.8872H374.264V45.0044H373.473L373.344 44.1431ZM371.398 44.3071C372.062 44.3071 372.543 44.1274 372.84 43.7681C373.141 43.4048 373.291 42.8208 373.291 42.0161V41.811C373.291 40.9009 373.139 40.2524 372.834 39.8657C372.533 39.4751 372.051 39.2798 371.387 39.2798C370.816 39.2798 370.379 39.5024 370.074 39.9478C369.773 40.3892 369.623 41.0142 369.623 41.8228C369.623 42.6431 369.773 43.2622 370.074 43.6802C370.375 44.0981 370.816 44.3071 371.398 44.3071ZM375.793 42.2329V41.3423H378.67V42.2329H375.793ZM381.113 38.5825V42.7485C381.113 43.272 381.232 43.6626 381.471 43.9204C381.709 44.1782 382.082 44.3071 382.59 44.3071C383.262 44.3071 383.752 44.1235 384.061 43.7563C384.373 43.3892 384.529 42.7896 384.529 41.9575V38.5825H385.502V45.0044H384.699L384.559 44.1431H384.506C384.307 44.4595 384.029 44.7017 383.674 44.8696C383.322 45.0376 382.92 45.1216 382.467 45.1216C381.686 45.1216 381.1 44.936 380.709 44.5649C380.322 44.1938 380.129 43.6001 380.129 42.7837V38.5825H381.113ZM390.5 38.4653C390.785 38.4653 391.041 38.4888 391.268 38.5356L391.133 39.438C390.867 39.3794 390.633 39.3501 390.43 39.3501C389.91 39.3501 389.465 39.561 389.094 39.9829C388.727 40.4048 388.543 40.9302 388.543 41.5591V45.0044H387.57V38.5825H388.373L388.484 39.772H388.531C388.77 39.354 389.057 39.0317 389.393 38.8052C389.729 38.5786 390.098 38.4653 390.5 38.4653ZM393.441 45.0044H392.469V35.8872H393.441V45.0044ZM395.363 44.3833C395.363 44.1216 395.422 43.9243 395.539 43.7915C395.66 43.6548 395.832 43.5864 396.055 43.5864C396.281 43.5864 396.457 43.6548 396.582 43.7915C396.711 43.9243 396.775 44.1216 396.775 44.3833C396.775 44.6372 396.711 44.8325 396.582 44.9692C396.453 45.106 396.277 45.1743 396.055 45.1743C395.855 45.1743 395.689 45.1138 395.557 44.9927C395.428 44.8677 395.363 44.6646 395.363 44.3833ZM401.27 45.1216C400.34 45.1216 399.619 44.8364 399.107 44.2661C398.6 43.6919 398.346 42.8813 398.346 41.8345C398.346 40.7603 398.604 39.9302 399.119 39.3442C399.639 38.7583 400.377 38.4653 401.334 38.4653C401.643 38.4653 401.951 38.4985 402.26 38.5649C402.568 38.6313 402.811 38.7095 402.986 38.7993L402.688 39.6255C402.473 39.5396 402.238 39.4692 401.984 39.4146C401.73 39.356 401.506 39.3267 401.311 39.3267C400.006 39.3267 399.354 40.1587 399.354 41.8228C399.354 42.6118 399.512 43.2173 399.828 43.6392C400.148 44.061 400.621 44.272 401.246 44.272C401.781 44.272 402.33 44.1567 402.893 43.9263V44.7876C402.463 45.0103 401.922 45.1216 401.27 45.1216ZM409.965 41.7876C409.965 42.8345 409.701 43.6528 409.174 44.2427C408.646 44.8286 407.918 45.1216 406.988 45.1216C406.414 45.1216 405.904 44.9868 405.459 44.7173C405.014 44.4478 404.67 44.061 404.428 43.5571C404.186 43.0532 404.064 42.4634 404.064 41.7876C404.064 40.7407 404.326 39.9263 404.85 39.3442C405.373 38.7583 406.1 38.4653 407.029 38.4653C407.928 38.4653 408.641 38.7642 409.168 39.3618C409.699 39.9595 409.965 40.7681 409.965 41.7876ZM405.072 41.7876C405.072 42.6079 405.236 43.2329 405.564 43.6626C405.893 44.0923 406.375 44.3071 407.012 44.3071C407.648 44.3071 408.131 44.0942 408.459 43.6685C408.791 43.2388 408.957 42.6118 408.957 41.7876C408.957 40.9712 408.791 40.3521 408.459 39.9302C408.131 39.5044 407.645 39.2915 407 39.2915C406.363 39.2915 405.883 39.5005 405.559 39.9185C405.234 40.3364 405.072 40.9595 405.072 41.7876ZM419.861 45.0044V40.8267C419.861 40.3149 419.752 39.9321 419.533 39.6782C419.314 39.4204 418.975 39.2915 418.514 39.2915C417.908 39.2915 417.461 39.4653 417.172 39.813C416.883 40.1606 416.738 40.6958 416.738 41.4185V45.0044H415.766V40.8267C415.766 40.3149 415.656 39.9321 415.438 39.6782C415.219 39.4204 414.877 39.2915 414.412 39.2915C413.803 39.2915 413.355 39.4751 413.07 39.8423C412.789 40.2056 412.648 40.8032 412.648 41.6353V45.0044H411.676V38.5825H412.467L412.625 39.4614H412.672C412.855 39.1489 413.113 38.9048 413.445 38.729C413.781 38.5532 414.156 38.4653 414.57 38.4653C415.574 38.4653 416.23 38.8286 416.539 39.5552H416.586C416.777 39.2192 417.055 38.9536 417.418 38.7583C417.781 38.563 418.195 38.4653 418.66 38.4653C419.387 38.4653 419.93 38.6528 420.289 39.0278C420.652 39.3989 420.834 39.9946 420.834 40.8149V45.0044H419.861Z" fill="#727272"/>
</svg>
