<svg width="736" height="350" viewBox="0 0 736 350" fill="none" xmlns="http://www.w3.org/2000/svg">
<path d="M0 187C0 180.373 5.37258 175 12 175H724C730.627 175 736 180.373 736 187V350H0V187Z" fill="#F3F3F3"/>
<circle cx="368" cy="175" r="143" fill="#ECD4FF"/>
<path d="M405.515 75.5886C404.453 80.2389 404.87 85.1081 406.707 89.5064C406.905 89.8872 407.176 90.2245 407.504 90.4991C407.832 90.7737 408.211 90.9801 408.619 91.1063C409.027 91.2324 409.455 91.2759 409.88 91.2343C410.304 91.1926 410.717 91.0665 411.092 90.8634C411.851 90.4606 412.421 89.7731 412.681 88.9497C412.887 88.1172 412.802 87.2383 412.439 86.4619L412.18 85.8008C412.284 86.0618 412.387 86.3228 412.474 86.5837C411.906 85.0433 411.541 83.4351 411.386 81.7995C411.386 82.0778 411.386 82.3562 411.472 82.6345C411.314 80.9987 411.372 79.3489 411.645 77.7285L411.49 78.5984L411.697 77.5545C411.93 76.7259 411.85 75.8394 411.472 75.0667C411.171 74.4994 410.71 74.0343 410.148 73.7295C409.585 73.4247 408.946 73.2939 408.311 73.3533C407.675 73.4127 407.07 73.6598 406.573 74.0636C406.076 74.4674 405.708 75.01 405.515 75.6234V75.5886Z" fill="#E0E0E0"/>
<path d="M405.515 75.5885C405.515 75.5885 405.515 75.2927 405.705 74.7882C406.076 74.0906 406.692 73.5572 407.432 73.2921C407.986 73.0984 408.576 73.033 409.159 73.1007C409.86 73.1831 410.515 73.4948 411.023 73.988C411.617 74.5466 411.996 75.2981 412.094 76.1104C412.125 76.9604 412.031 77.8103 411.817 78.633L411.075 78.4938L411.213 77.624L411.973 77.7632C411.733 79.3521 411.687 80.9645 411.835 82.5648H410.989C410.989 82.3038 410.989 82.0081 410.902 81.7123H411.766C411.924 83.3078 412.29 84.8754 412.853 86.3748L412.007 86.688L411.714 85.9051L412.56 85.5919L412.802 86.2182C413.194 87.072 413.291 88.0336 413.078 88.9496C412.815 89.8389 412.237 90.6003 411.455 91.0895C410.71 91.5369 409.833 91.7087 408.976 91.5754C408.119 91.442 407.335 91.0118 406.758 90.3588C406.489 90.0519 406.289 89.6899 406.171 89.2975C406.033 88.9496 405.912 88.619 405.809 88.2885C405.582 87.6448 405.391 86.9884 405.239 86.3226C404.953 85.1337 404.763 83.9236 404.669 82.704C404.544 80.9595 404.637 79.206 404.946 77.4848C405.028 76.8424 405.203 76.2154 405.464 75.6233C405.199 77.9739 405.147 80.3439 405.308 82.704C405.422 83.8814 405.642 85.0459 405.964 86.1834C406.123 86.8266 406.319 87.4598 406.551 88.0797C406.727 88.703 407.008 89.2913 407.38 89.8195C407.832 90.3199 408.442 90.646 409.107 90.7415C409.768 90.8687 410.453 90.7382 411.023 90.3762C411.62 90.0121 412.058 89.4341 412.249 88.7582C412.423 88.0345 412.344 87.2726 412.025 86.601L411.766 85.9573L412.612 85.6267C412.715 85.9051 412.802 86.166 412.905 86.4096L412.059 86.7228C411.483 85.1482 411.111 83.5049 410.954 81.8341L411.817 81.7471C411.817 82.0255 411.817 82.3212 411.817 82.5822H410.971C410.824 80.9037 410.9 79.2129 411.196 77.5544L411.956 77.6936L411.8 78.546L411.058 78.4243C411.281 77.6737 411.391 76.8938 411.386 76.1104C411.333 75.4506 411.045 74.8324 410.574 74.3707C410.189 73.9811 409.705 73.7066 409.175 73.5776C408.644 73.4487 408.089 73.4702 407.57 73.64C406.87 73.8181 406.257 74.2442 405.843 74.8404C405.636 75.3623 405.567 75.5885 405.515 75.5885Z" fill="#323949"/>
<path d="M325.884 193.89C329.643 191.124 332.635 187.432 334.573 183.168C336.511 178.903 337.33 174.209 336.952 169.534L366.01 147.578C370.377 149.212 375.08 149.715 379.689 149.042C384.299 148.369 388.667 146.542 392.393 143.727C396.12 140.912 399.086 137.2 401.019 132.931C402.953 128.661 403.792 123.971 403.461 119.29L406.258 117.168C409.136 115.059 411.413 112.223 412.859 108.946C414.304 105.67 414.868 102.067 414.494 98.5007C415.2 98.0969 415.88 97.6495 416.531 97.1612C418.253 95.8601 419.704 94.2299 420.801 92.3638C421.898 90.4977 422.619 88.4322 422.924 86.2853C423.229 84.1383 423.111 81.9519 422.577 79.8509C422.043 77.7498 421.103 75.7754 419.812 74.0402C418.52 72.305 416.903 70.8431 415.051 69.7379C413.199 68.6327 411.149 67.9059 409.018 67.5989C406.887 67.292 404.717 67.4109 402.632 67.949C400.547 68.487 398.587 69.4336 396.865 70.7347C395.907 71.4576 395.033 72.2862 394.258 73.2051C389.383 71.226 384.08 70.5652 378.873 71.2885C373.667 72.0117 368.739 74.0938 364.577 77.3283L354.701 84.7917L327.49 81.8342C320.906 81.1838 314.319 83.0463 309.032 87.0533L267.783 118.299C262.9 121.918 259.551 127.262 258.408 133.26L253.228 161.566L252.917 161.792C244.111 168.455 241.919 180.546 248.031 188.758L259.841 204.624C265.919 212.801 278.005 214.071 286.776 207.442L299.588 197.77C303.935 199.44 308.634 199.961 313.237 199.282C317.841 198.603 322.195 196.746 325.884 193.89ZM402.235 87.0707C401.397 85.9742 400.903 84.6509 400.816 83.27C400.728 81.8891 401.051 80.5133 401.744 79.3183C402.436 78.1233 403.466 77.1634 404.702 76.5612C405.939 75.959 407.325 75.7419 408.685 75.9376C410.044 76.1333 411.315 76.7329 412.335 77.6598C413.354 78.5867 414.076 79.7989 414.409 81.1414C414.742 82.4839 414.669 83.8959 414.202 85.1968C413.734 86.4978 412.892 87.6287 411.783 88.4451C411.068 88.9897 410.254 89.3867 409.387 89.6133C408.52 89.8399 407.616 89.8917 406.729 89.7656C405.842 89.6395 404.988 89.3381 404.217 88.8786C403.446 88.4191 402.772 87.8106 402.235 87.0881V87.0707Z" fill="white"/>
<path d="M402.235 87.0881C402.235 87.0881 402.667 87.523 403.513 88.1667C404.703 89.0606 406.155 89.5316 407.639 89.5063C408.833 89.5018 410.002 89.1631 411.016 88.528C412.03 87.8928 412.848 86.9862 413.381 85.9094C413.913 84.8326 414.137 83.628 414.029 82.43C413.921 81.2321 413.485 80.0879 412.769 79.1254C412.053 78.1628 411.085 77.4197 409.975 76.9791C408.864 76.5384 407.653 76.4175 406.478 76.6299C405.303 76.8423 404.21 77.3796 403.32 78.1819C402.431 78.9841 401.78 80.0197 401.441 81.173C401.003 82.6083 401.046 84.1485 401.561 85.5571C401.941 86.5487 402.304 87.0359 402.235 87.0881C401.788 86.711 401.444 86.2262 401.233 85.6789C400.561 84.2145 400.415 82.5602 400.819 80.999C401.13 79.8271 401.73 78.7533 402.563 77.8774C403.397 77.0015 404.436 76.3518 405.585 75.9886C407.007 75.5407 408.533 75.5478 409.952 76.0089C411.371 76.47 412.613 77.3625 413.508 78.5637C414.403 79.7649 414.907 81.2159 414.951 82.7174C414.994 84.2188 414.575 85.697 413.751 86.9489C413.085 87.9604 412.175 88.7847 411.106 89.3446C410.036 89.9045 408.844 90.1816 407.639 90.15C406.03 90.107 404.489 89.4905 403.288 88.4103C402.834 88.0638 402.472 87.6096 402.235 87.0881Z" fill="#323949"/>
<path d="M325.884 193.889C325.884 193.889 325.401 194.272 324.416 194.985C320.486 197.654 315.947 199.27 311.225 199.683C307.213 200.029 303.177 199.434 299.432 197.943H299.622L292.716 203.162L289.038 206.067C287.743 207.042 286.431 208.068 284.963 208.99C281.83 210.892 278.26 211.941 274.604 212.035C270.611 212.163 266.682 211.012 263.381 208.747C261.673 207.499 260.175 205.983 258.943 204.258L255.075 199.039C252.468 195.56 249.706 191.958 246.978 188.096C245.65 186.027 244.748 183.711 244.327 181.284C243.906 178.857 243.974 176.37 244.526 173.97C245.684 168.875 248.635 164.376 252.831 161.304L252.693 161.548C254.419 152.014 256.146 142.046 258.287 131.642C259.681 126.309 262.797 121.596 267.145 118.246L280.37 108.243L307.996 87.3659C312.757 83.5172 318.659 81.3858 324.762 81.3117C326.287 81.3304 327.809 81.4466 329.32 81.6596L333.844 82.1467L342.926 83.1384L354.719 84.4084L354.39 84.4954L363.3 77.78C364.767 76.6352 366.307 75.5891 367.91 74.6485C369.53 73.7475 371.222 72.9851 372.969 72.3695C379.897 69.8765 387.492 70.0375 394.31 72.8218L393.792 72.9436C395.393 71.0535 397.387 69.5415 399.633 68.5146C401.879 67.4876 404.321 66.971 406.787 67.0013C409.253 67.0315 411.683 67.6079 413.903 68.6896C416.123 69.7713 418.081 71.3318 419.636 73.2606C421.191 75.1893 422.306 77.4391 422.902 79.8505C423.498 82.2618 423.56 84.7757 423.084 87.214C422.608 89.6523 421.606 91.9554 420.148 93.9599C418.691 95.9644 416.813 97.6213 414.649 98.8133L414.857 98.4132C415.35 102.746 414.435 107.123 412.249 110.887C411.206 112.7 409.909 114.352 408.399 115.793C406.88 117.22 405.222 118.35 403.651 119.568L403.806 119.22C404.267 124.442 403.217 129.687 400.785 134.321C398.481 138.669 395.125 142.361 391.029 145.055C387.362 147.512 383.163 149.045 378.785 149.527C374.408 150.008 369.979 149.423 365.872 147.821H366.149L337.107 169.638V169.446C337.465 173.517 336.874 177.616 335.38 181.416C334.318 184.161 332.832 186.721 330.978 189.001C329.849 190.392 328.589 191.668 327.214 192.811C326.281 193.559 325.78 193.907 325.78 193.907C325.78 193.907 326.229 193.489 327.144 192.724C328.471 191.55 329.696 190.263 330.805 188.879C332.619 186.593 334.064 184.033 335.087 181.294C336.508 177.537 337.04 173.498 336.641 169.498V169.377H336.744L365.752 147.334H365.872H366.028C370.059 148.872 374.398 149.412 378.679 148.909C382.96 148.407 387.06 146.876 390.632 144.446C394.613 141.82 397.877 138.231 400.128 134.008C402.481 129.492 403.489 124.387 403.029 119.307V119.081L403.202 118.942C404.756 117.724 406.431 116.593 407.864 115.219C409.348 113.811 410.607 112.18 411.593 110.382C413.682 106.767 414.56 102.57 414.097 98.4132V98.1348L414.339 97.9956C416.328 96.892 418.061 95.3736 419.421 93.5418C420.782 91.7099 421.74 89.6067 422.23 87.3725C422.72 85.1383 422.732 82.8245 422.264 80.5853C421.797 78.3462 420.861 76.2333 419.518 74.3875C418.099 72.4324 416.259 70.8259 414.136 69.688C412.013 68.5502 409.663 67.9106 407.26 67.8169C404.857 67.7232 402.465 68.1779 400.261 69.147C398.058 70.1161 396.1 71.5745 394.534 73.4133L394.327 73.6743L394.034 73.5351C387.413 70.839 380.041 70.6842 373.314 73.1001C371.625 73.7133 369.985 74.4578 368.411 75.327C366.84 76.2506 365.329 77.2733 363.887 78.3889L354.995 85.1217L354.839 85.226H354.667L342.891 83.9386L333.792 82.9644L329.251 82.5469C327.774 82.3509 326.286 82.2405 324.796 82.2163C318.889 82.292 313.176 84.3557 308.566 88.0792L280.94 108.956L267.714 118.942C263.49 122.164 260.453 126.712 259.081 131.868C257.044 142.15 255.248 152.188 253.435 161.704V161.861H253.314C249.256 164.807 246.392 169.132 245.251 174.039C244.718 176.346 244.65 178.737 245.05 181.071C245.451 183.404 246.312 185.634 247.582 187.626C250.241 191.419 253.038 195.038 255.628 198.569L259.478 203.788C261.153 206.244 263.42 208.23 266.066 209.56C268.712 210.889 271.65 211.52 274.604 211.391C278.148 211.308 281.61 210.301 284.652 208.468C286.068 207.581 287.398 206.572 288.693 205.58L292.457 202.762L299.363 197.543H299.467C303.159 199.004 307.133 199.598 311.087 199.283C313.982 199.064 316.825 198.389 319.513 197.282C321.163 196.598 322.752 195.771 324.261 194.811C325.349 194.237 325.884 193.889 325.884 193.889Z" fill="#323949"/>
<path d="M370.742 85.6266L356.531 96.3607L323.07 91.3851C321.471 91.1503 319.843 91.237 318.278 91.6401C316.713 92.0432 315.243 92.7548 313.953 93.7337L272.704 124.892C270.518 126.54 269.066 128.991 268.664 131.712L263.484 166.611L258.926 170.09C257.465 171.238 256.514 172.921 256.281 174.773C256.048 176.624 256.552 178.493 257.683 179.972L270.442 197.126C270.987 197.862 271.67 198.482 272.454 198.951C273.237 199.419 274.105 199.727 275.007 199.857C275.909 199.986 276.827 199.934 277.709 199.704C278.591 199.475 279.419 199.071 280.146 198.517L296.221 186.339C293.309 182.2 292.116 177.08 292.896 172.068C293.675 167.056 296.366 162.549 300.394 159.506C304.422 156.463 309.471 155.125 314.464 155.776C319.457 156.427 324 159.016 327.127 162.992L363.006 135.905C359.934 131.773 358.616 126.58 359.343 121.469C360.07 116.358 362.782 111.748 366.882 108.652C370.983 105.556 376.137 104.228 381.209 104.96C386.281 105.693 390.857 108.426 393.93 112.558L399.714 108.191C401.195 107.035 402.161 105.335 402.4 103.464C402.64 101.592 402.133 99.701 400.992 98.2048L394.085 88.9842C391.42 85.4366 387.471 83.0933 383.099 82.4645C378.727 81.8356 374.286 82.9721 370.742 85.6266Z" fill="#02B9CE"/>
<path d="M323.294 167.342C324.935 169.543 325.892 172.186 326.042 174.936C326.192 177.685 325.529 180.418 324.138 182.788C322.746 185.158 320.688 187.059 318.224 188.249C315.76 189.44 313 189.868 310.295 189.478C307.589 189.089 305.059 187.899 303.025 186.06C300.991 184.221 299.544 181.815 298.867 179.147C298.19 176.479 298.314 173.669 299.223 171.072C300.132 168.475 301.785 166.208 303.973 164.558C306.903 162.349 310.583 161.401 314.205 161.923C317.827 162.445 321.096 164.394 323.294 167.342Z" fill="#02B9CE"/>
<path d="M389.872 117.081C391.514 119.283 392.47 121.925 392.62 124.675C392.771 127.425 392.108 130.157 390.716 132.527C389.325 134.897 387.266 136.798 384.802 137.989C382.338 139.18 379.579 139.607 376.873 139.218C374.168 138.828 371.638 137.638 369.604 135.799C367.569 133.96 366.122 131.554 365.446 128.886C364.769 126.219 364.893 123.408 365.802 120.811C366.711 118.214 368.364 115.947 370.552 114.297C373.481 112.088 377.161 111.14 380.783 111.662C384.406 112.184 387.675 114.133 389.872 117.081Z" fill="#02B9CE"/>
<path d="M278.246 156.034C277.7 156.447 277.045 156.687 276.364 156.724C275.682 156.762 275.005 156.595 274.418 156.245C273.83 155.895 273.359 155.378 273.063 154.758C272.767 154.138 272.66 153.444 272.756 152.763L273.93 144.343L276.036 131.852C276.123 131.329 276.407 130.861 276.831 130.547L291.887 119.187C292.099 119.025 292.34 118.908 292.597 118.841C292.854 118.773 293.122 118.758 293.385 118.795C293.648 118.832 293.901 118.921 294.13 119.057C294.359 119.193 294.559 119.373 294.718 119.587L304.94 133.313C305.262 133.75 305.4 134.297 305.322 134.835C305.244 135.373 304.958 135.858 304.526 136.184L278.246 156.034Z" fill="white"/>
<path d="M300.071 115.707L310.137 129.242C310.483 129.7 310.994 130.002 311.56 130.083C312.125 130.165 312.699 130.019 313.159 129.677L341.959 107.896C342.185 107.726 342.376 107.513 342.52 107.269C342.664 107.024 342.759 106.754 342.799 106.473C342.839 106.191 342.824 105.905 342.753 105.63C342.683 105.354 342.56 105.096 342.39 104.869L340.163 101.859C339.83 101.417 339.342 101.118 338.799 101.024L320.998 98.0142C320.697 97.9586 320.388 97.9671 320.09 98.039C319.793 98.1109 319.514 98.2447 319.271 98.4317L300.503 112.663C300.049 113.012 299.749 113.526 299.668 114.096C299.587 114.665 299.732 115.244 300.071 115.707Z" fill="white"/>
<path d="M463.979 105.164L405.032 86.7927C398.912 84.8896 392.292 85.5117 386.627 88.5225C380.961 91.5332 376.714 96.6864 374.816 102.85L334.482 234.061C332.588 240.23 333.203 246.904 336.192 252.616C339.18 258.329 344.298 262.611 350.419 264.523L409.348 282.912C415.471 284.82 422.095 284.201 427.764 281.19C433.434 278.179 437.684 273.022 439.581 266.854L479.915 135.644C480.856 132.589 481.189 129.376 480.897 126.19C480.605 123.005 479.693 119.908 478.214 117.078C476.734 114.247 474.715 111.738 472.272 109.694C469.83 107.65 467.012 106.111 463.979 105.164ZM441.878 126.041L412.284 116.803C411.356 116.514 410.494 116.044 409.747 115.419C409 114.795 408.383 114.028 407.93 113.163C407.477 112.298 407.198 111.351 407.108 110.377C407.018 109.403 407.119 108.421 407.406 107.487C407.693 106.552 408.159 105.684 408.779 104.931C409.399 104.179 410.16 103.556 411.019 103.1C411.877 102.644 412.817 102.362 413.783 102.271C414.75 102.181 415.725 102.283 416.652 102.572L446.246 111.81C447.174 112.099 448.035 112.569 448.782 113.194C449.529 113.818 450.147 114.585 450.6 115.45C451.053 116.315 451.332 117.262 451.422 118.236C451.512 119.21 451.411 120.192 451.124 121.126C450.837 122.061 450.37 122.929 449.75 123.682C449.131 124.434 448.37 125.057 447.511 125.513C446.652 125.969 445.713 126.251 444.747 126.341C443.78 126.432 442.805 126.33 441.878 126.041Z" fill="#323949"/>
<path d="M382.649 133.823L357.116 216.881C355.635 221.7 358.311 226.816 363.093 228.308L419.236 245.83C424.018 247.323 429.095 244.626 430.577 239.808L456.109 156.75C457.591 151.931 454.915 146.815 450.133 145.323L393.99 127.801C389.208 126.308 384.13 129.005 382.649 133.823Z" fill="#545E76"/>
<path d="M460.836 182.53C460.836 182.774 438.598 176.076 411.317 167.569C384.036 159.061 362.005 151.911 362.074 151.72C362.143 151.528 384.313 158.174 411.593 166.699C438.874 175.223 460.905 182.304 460.836 182.53Z" fill="#545E76"/>
<path d="M449.717 218.681C449.717 218.925 427.892 212.349 401.113 203.998C374.333 195.647 352.767 188.671 352.767 188.341C352.767 188.01 374.592 194.691 401.371 203.041C428.151 211.392 449.803 218.455 449.717 218.681Z" fill="#545E76"/>
<path d="M424.646 263.584C424.077 265.414 422.983 267.034 421.501 268.238C420.019 269.442 418.217 270.177 416.32 270.35C414.424 270.523 412.52 270.126 410.848 269.209C409.176 268.292 407.81 266.897 406.925 265.199C406.039 263.501 405.672 261.577 405.87 259.669C406.069 257.762 406.824 255.956 408.04 254.48C409.257 253.004 410.879 251.925 412.704 251.378C414.529 250.83 416.473 250.84 418.292 251.406C419.506 251.78 420.634 252.394 421.611 253.21C422.589 254.026 423.396 255.029 423.987 256.161C424.577 257.293 424.94 258.532 425.053 259.806C425.166 261.08 425.028 262.364 424.646 263.584Z" fill="#E0E0E0"/>
<path d="M405.36 275.327C405.36 275.327 405.792 275.327 406.638 275.606C407.069 275.693 407.57 275.867 408.209 275.954L410.419 276.267C411.248 276.267 412.146 276.371 413.233 276.371C414.39 276.34 415.543 276.235 416.687 276.058C419.491 275.656 422.206 274.773 424.715 273.448C427.867 271.815 430.643 269.533 432.865 266.751C433.493 265.978 434.07 265.164 434.592 264.315C434.851 263.88 435.127 263.445 435.386 262.993L436.077 261.584C436.968 259.574 437.701 257.498 438.269 255.373L447.369 225.536C454.137 203.425 462.2 177.12 471.127 147.91C471.697 146.17 472.249 144.239 472.853 142.395C473.467 140.568 473.963 138.702 474.338 136.81C475.009 132.963 474.802 129.013 473.734 125.259C472.613 121.392 470.598 117.848 467.855 114.918C465.112 111.988 461.718 109.754 457.953 108.401C442.258 103.373 425.872 98.3624 409.159 93.1084C405.047 91.8628 400.694 91.6597 396.485 92.5169C392.336 93.4074 388.472 95.3269 385.245 98.1015C382.054 100.812 379.6 104.296 378.114 108.227C376.715 112.158 375.593 116.247 374.333 120.196L360.105 166.055L347.311 207.513L341.51 226.302C339.39 231.95 339.269 238.162 341.164 243.891C342.902 249.08 346.234 253.577 350.678 256.73C354.874 259.739 359.743 260.766 364.059 262.21L386.367 269.256L400.456 273.727L404.117 274.927C404.946 275.188 405.36 275.362 405.36 275.362L404.1 275.014L400.405 273.901L386.264 269.586L363.818 262.627L357.067 260.522C354.653 259.724 352.363 258.588 350.264 257.147C346.763 254.688 343.914 251.403 341.963 247.579C340.013 243.755 339.022 239.508 339.075 235.209C339.075 234.444 339.075 233.678 339.196 232.913C339.317 232.147 339.421 231.365 339.541 230.599C339.887 229.068 340.284 227.537 340.767 226.041L346.517 207.235C350.488 194.239 354.753 180.356 359.225 165.759C363.697 151.163 368.41 135.819 373.28 119.918C374.54 115.951 375.645 111.932 377.078 107.896C378.632 103.846 381.173 100.256 384.468 97.4578C387.807 94.5922 391.8 92.6074 396.088 91.6819C400.452 90.7925 404.967 91.0077 409.228 92.3082C425.941 97.5274 442.275 102.555 458.039 107.6C461.926 109.002 465.429 111.308 468.264 114.331C471.1 117.354 473.187 121.009 474.356 124.998C475.45 128.885 475.657 132.971 474.96 136.95C474.582 138.878 474.074 140.779 473.44 142.638C472.888 144.483 472.318 146.309 471.714 148.136L447.887 225.728C444.433 236.758 441.377 246.744 438.666 255.512C438.082 257.664 437.326 259.764 436.405 261.792C436.18 262.262 435.938 262.749 435.697 263.219C435.455 263.689 435.161 264.106 434.885 264.558C434.367 265.416 433.79 266.235 433.159 267.012C429.029 272.099 423.147 275.429 416.687 276.336C415.542 276.496 414.389 276.583 413.233 276.597C412.18 276.597 411.231 276.493 410.402 276.441L408.192 276.093C407.553 275.971 407.035 275.797 406.62 275.693C405.774 275.467 405.36 275.327 405.36 275.327Z" fill="#545E76"/>
<path d="M447.61 178.754C447.61 178.998 431.208 174.109 411.144 167.846C391.081 161.583 374.885 156.312 374.885 156.068C374.885 155.825 391.288 160.713 411.351 166.976C431.415 173.239 447.697 178.511 447.61 178.754Z" fill="#323949"/>
<path d="M436.526 214.315C436.439 214.558 420.157 209.687 400.146 203.441C380.134 197.196 363.887 191.942 364.042 191.698C364.198 191.455 380.393 196.326 400.405 202.572C420.416 208.817 436.595 214.071 436.526 214.315Z" fill="#323949"/>
<path d="M360.244 217.742C360.002 217.655 365.078 200.484 371.553 179.381C378.028 158.278 383.501 141.107 383.743 141.281C383.985 141.455 378.909 158.522 372.416 179.555C365.924 200.588 360.468 217.812 360.244 217.742Z" fill="#323949"/>
<path d="M426.321 238.027C426.079 238.027 431.104 220.908 437.544 199.962C443.984 179.016 449.406 162.088 449.63 162.175C449.855 162.262 444.848 179.276 438.407 200.24C431.967 221.204 426.563 238.097 426.321 238.027Z" fill="#323949"/>
<path d="M414.477 69.0473C414.477 69.0473 414.995 68.0556 415.357 67.4467C416.016 66.3203 416.749 65.2393 417.55 64.2108C417.654 64.0717 417.982 63.515 418.154 63.4454C418.327 63.3758 417.619 64.0543 418.034 63.6193C418.116 63.5015 418.209 63.3909 418.31 63.2888C418.776 62.7669 419.259 62.245 419.76 61.7578C420.663 60.8742 421.62 60.0491 422.626 59.2874C422.626 59.2874 423.231 58.7655 423.282 58.8003C423.334 58.8351 422.713 59.2004 423.127 58.9221L423.559 58.6263C424.111 58.261 424.664 57.9304 425.285 57.5999C426.373 56.9796 427.497 56.4276 428.652 55.9472L429.032 55.7906H429.222C428.98 56.0515 429.101 55.7906 429.326 55.7906L429.809 55.6166L431.536 55.0599C432.792 54.7214 434.066 54.4543 435.352 54.2596L436.301 54.1378C436.439 54.1219 436.578 54.1219 436.716 54.1378C436.336 54.0335 436.163 54.1378 436.526 54.1378C437.199 54.1378 437.89 54.0335 438.563 54.0161C439.912 53.9813 441.261 54.0336 442.603 54.1726C443.225 54.1726 443.846 54.2944 444.468 54.3988C444.606 54.3988 445.09 54.3988 444.606 54.3988C444.123 54.3988 444.762 54.3988 444.831 54.3988L445.936 54.625C447.28 54.9164 448.606 55.2882 449.907 55.7384C450.563 55.9472 451.185 56.1907 451.823 56.4517L452.635 56.7996C452.778 56.8528 452.916 56.9168 453.049 56.991C452.41 56.4865 452.808 56.8866 453.049 56.991C454.238 57.5776 455.391 58.234 456.503 58.9569C457.055 59.3222 457.59 59.6876 458.108 60.0877L458.799 60.6096L459.213 60.9576C459.023 60.7662 459.8 61.4099 459.213 60.9576C460.18 61.8274 461.113 62.6973 461.993 63.6541C462.879 64.6309 463.715 65.6529 464.497 66.7161C464.669 66.977 464.756 66.8552 464.376 66.5595C464.473 66.6625 464.555 66.7798 464.618 66.9074C464.808 67.1858 464.98 67.4467 465.136 67.7251C465.498 68.2818 465.844 68.8733 466.172 69.4648C466.818 70.5878 467.394 71.7498 467.898 72.9443C468.049 73.19 468.154 73.4611 468.209 73.7445C468.071 73.3444 468.209 73.1356 468.209 73.7445L468.399 74.2665C468.589 74.8754 468.779 75.4843 468.951 76.1106C469.286 77.3531 469.551 78.6135 469.746 79.8858C469.746 80.2511 469.849 80.5991 469.884 80.9644C469.901 81.1089 469.901 81.2549 469.884 81.3993C469.884 81.3993 469.884 80.6165 469.884 81.208C469.884 81.7995 469.987 82.5824 470.005 83.2609C470.025 84.5853 469.967 85.9098 469.832 87.2274C469.832 87.558 469.832 87.8885 469.728 88.2191C469.625 88.5496 469.728 88.9498 469.59 89.1063L469.677 88.6888C469.667 88.7988 469.667 88.9094 469.677 89.0194L469.573 89.5761C469.573 89.9414 469.418 90.3067 469.331 90.6721C469.019 92.011 468.627 93.3297 468.157 94.6213C467.933 95.2128 467.691 95.8217 467.432 96.361C467.375 96.5422 467.3 96.7171 467.208 96.8829C467.208 96.8829 467.553 96.1522 467.294 96.6915L466.793 97.6832C466.187 98.8848 465.507 100.047 464.756 101.163C464.376 101.702 463.996 102.224 463.599 102.728C463.461 102.92 463.254 103.32 463.064 103.407L463.323 103.094L463.116 103.337L462.753 103.755C461.876 104.749 460.936 105.684 459.939 106.556C459.49 106.956 459.023 107.339 458.557 107.721L457.798 108.296C457.677 108.296 457.487 108.591 457.366 108.626C457.608 108.626 457.867 108.261 457.366 108.626C456.257 109.271 455.116 109.858 453.947 110.383C453.412 110.662 452.877 110.923 452.324 111.166L451.444 111.549C451.142 111.74 450.808 111.875 450.459 111.949C450.459 111.949 451.185 111.688 450.632 111.949L450.235 112.088L449.32 112.401C448.681 112.593 448.025 112.784 447.386 112.941C446.135 113.25 444.866 113.482 443.588 113.636H443.052C442.621 113.636 443.691 113.636 443.259 113.636C442.828 113.636 442.603 113.636 442.275 113.636C441.636 113.636 440.98 113.636 440.341 113.636C438.985 113.622 437.63 113.529 436.284 113.358C435.973 113.358 435.628 113.236 435.3 113.219H435.507H435.058C434.316 113.08 433.59 112.906 432.865 112.714C431.324 112.297 429.812 111.774 428.341 111.149C428.117 111.149 427.219 110.627 427.858 110.94C427.478 110.749 427.098 110.575 426.736 110.366C425.959 109.966 425.199 109.513 424.457 109.044C423.714 108.574 423.093 108.139 422.436 107.634L421.573 106.973L421.141 106.625C421.729 107.095 421.038 106.521 420.969 106.469C419.736 105.394 418.582 104.232 417.516 102.989C416.931 102.36 416.125 101.986 415.27 101.947C414.415 101.908 413.579 102.207 412.94 102.781C412.323 103.375 411.958 104.185 411.919 105.044C411.881 105.903 412.172 106.743 412.733 107.391C418.686 114.942 427.372 119.801 436.881 120.898C446.389 121.996 455.941 119.243 463.435 113.245C470.929 107.247 475.751 98.4946 476.841 88.9139C477.93 79.3333 475.198 69.7089 469.245 62.158C465.676 57.357 461.008 53.4968 455.638 50.9068C450.269 48.3167 444.357 47.0735 438.408 47.2833C432.594 47.4126 426.907 49.0251 421.879 51.9703C416.852 54.9154 412.648 59.0969 409.659 64.1239C409.008 65.0357 408.517 66.0538 408.209 67.1336C410.388 67.4222 412.505 68.0687 414.477 69.0473Z" fill="#E0E0E0"/>
<path d="M414.477 69.0473C414.002 68.8013 413.512 68.5863 413.009 68.4036C411.463 67.8969 409.873 67.5358 408.261 67.325H408.123V67.2032C408.428 66.1032 408.925 65.0664 409.59 64.1413C411.424 60.9808 413.757 58.1426 416.497 55.7384C420.219 52.4698 424.594 50.0434 429.326 48.623C435.209 46.8425 441.442 46.5734 447.455 47.8401C454.515 49.3198 461.005 52.8098 466.154 57.8957C470.58 62.3523 473.797 67.8791 475.496 73.947C477.195 80.0149 477.32 86.4207 475.858 92.551C474.773 97.0027 472.869 101.21 470.246 104.955C467.437 109.033 463.836 112.493 459.66 115.126C455.484 117.759 450.82 119.51 445.953 120.273C441.085 121.036 436.114 120.795 431.342 119.565C426.569 118.334 422.095 116.14 418.189 113.115C416.586 111.888 415.09 110.526 413.717 109.044L412.698 107.93C412.314 107.538 412.014 107.07 411.818 106.556C411.623 106.025 411.55 105.457 411.604 104.893C411.658 104.33 411.837 103.786 412.129 103.303C412.417 102.82 412.811 102.411 413.281 102.106C413.75 101.801 414.283 101.608 414.838 101.543C415.393 101.477 415.956 101.54 416.483 101.728C417.01 101.915 417.487 102.222 417.878 102.624L419.898 104.712L420.9 105.738C421.052 105.915 421.214 106.083 421.383 106.243L421.677 106.469C421.297 106.591 422.454 106.104 421.107 107.165H421.021L420.882 107.043L421.435 106.347C422.471 107.217 423.559 107.93 424.647 108.678C425.734 109.426 426.891 110.035 428.1 110.609L427.703 111.41H427.582H427.495C427.44 111.367 427.393 111.314 427.357 111.253C427.337 111.191 427.337 111.124 427.357 111.062C427.354 110.954 427.391 110.848 427.461 110.766C427.498 110.719 427.546 110.68 427.599 110.653C427.653 110.626 427.712 110.611 427.772 110.609C428.082 110.609 427.944 110.609 427.979 110.609L428.238 110.731C428.405 110.818 428.578 110.894 428.756 110.957L429.844 111.323L431.985 112.071C432.683 112.348 433.405 112.558 434.143 112.697L435.231 112.958L435.783 113.062H435.904C436.094 112.314 435.576 114.089 435.749 113.932H435.524H435.3V113.045C436.819 113.306 438.183 113.271 439.599 113.41C440.306 113.454 441.015 113.454 441.723 113.41H442.793H443.38C443.38 113.41 443.622 113.41 443.76 113.758C443.898 114.106 443.622 114.141 443.622 114.176C443.603 114.184 443.582 114.188 443.562 114.188C443.541 114.188 443.52 114.184 443.501 114.176H442.828C442.828 114.176 442.621 114.176 442.586 113.706C442.551 113.236 442.914 113.393 442.914 113.341H443.069C444.468 113.149 445.815 112.854 447.196 112.61C447.869 112.454 448.526 112.245 449.182 112.071L450.166 111.758L450.667 111.584C450.753 111.584 450.494 111.584 450.874 111.584C451.098 113.149 450.874 112.036 450.96 112.384H450.822C450.695 112.436 450.561 112.471 450.425 112.488V111.618C450.711 111.543 450.984 111.426 451.236 111.271L452.186 110.853C452.808 110.522 453.464 110.261 454.051 109.914L455.777 108.835L456.675 108.313L457.124 108.035L457.314 107.93H457.418C457.485 107.925 457.552 107.934 457.615 107.958C457.677 107.982 457.734 108.02 457.78 108.069C457.828 108.116 457.862 108.174 457.88 108.238C457.898 108.302 457.9 108.37 457.884 108.435C457.884 108.609 457.884 108.591 457.884 108.609C457.85 108.617 457.814 108.617 457.78 108.609C457.672 108.701 457.54 108.761 457.4 108.783L457.228 107.965C457.124 107.965 457.331 107.965 457.469 107.739L457.884 107.426L458.678 106.782C459.207 106.369 459.709 105.921 460.18 105.442C461.095 104.486 462.114 103.598 462.96 102.589L463.582 103.129L463.323 103.442L462.839 102.798C462.839 102.798 463.133 102.346 463.34 102.067L463.979 101.197C464.395 100.643 464.776 100.062 465.118 99.4578L466.206 97.718C466.396 97.4223 466.551 97.0917 466.707 96.796L466.949 96.3089C466.517 95.9435 468.002 96.448 467.656 96.6394V96.7612C467.615 96.8737 467.557 96.9792 467.484 97.0743L466.776 96.4654L467.553 94.5517C467.812 93.8732 467.985 93.1773 468.192 92.5163L468.813 90.4808C468.969 89.8023 469.107 89.1064 469.228 88.4279L470.005 88.5671V88.9846L469.314 88.6715C469.314 88.0104 469.435 87.3493 469.487 86.7056C469.539 86.0619 469.487 85.279 469.573 84.5831C469.616 83.8821 469.616 83.179 469.573 82.478V81.4342V80.9123V80.8079C469.28 80.5469 470.747 80.4947 470.315 80.8079V81.0167C470.336 81.1317 470.336 81.2496 470.315 81.3646L469.573 81.2428C469.389 79.8506 469.136 78.4687 468.813 77.1023C468.696 76.4164 468.523 75.7415 468.295 75.0842C468.192 74.7362 468.105 74.4057 468.002 74.0752C467.919 73.8923 467.861 73.6992 467.829 73.501V73.3793C467.823 73.3447 467.823 73.3094 467.829 73.2749C467.85 73.2044 467.885 73.1392 467.933 73.0835C468 73.0401 468.078 73.017 468.157 73.017C468.237 73.017 468.315 73.0401 468.382 73.0835H468.468C468.623 73.3619 468.468 73.2923 468.589 73.3967V73.6924H467.881C467.773 73.4002 467.646 73.1154 467.501 72.8399L467.069 71.9005C466.776 71.2916 466.482 70.6827 466.206 70.1608C465.636 69.0126 464.842 67.7773 464.272 66.8727L463.167 65.133L464.687 66.3508C464.795 66.4186 464.889 66.5072 464.963 66.6117C465 66.6459 465.029 66.6873 465.049 66.7335C465.049 66.7335 465.049 66.7335 465.049 66.8205C465.076 66.8935 465.076 66.9736 465.049 67.0467C465.018 67.0937 464.977 67.1335 464.93 67.1635C464.882 67.1935 464.829 67.213 464.773 67.2206H464.652H464.549C464.468 67.1704 464.398 67.1055 464.341 67.0293L463.979 66.5769L463.254 65.6897L461.838 63.9499L459.179 61.3404C458.087 60.4521 456.933 59.644 455.726 58.9221L453.999 57.9131L453.118 57.4086C452.948 57.319 452.786 57.2142 452.635 57.0954V57.0084C452.608 56.9608 452.593 56.9068 452.593 56.8519C452.593 56.7969 452.608 56.7429 452.635 56.6953C452.894 56.3821 452.859 56.5561 452.928 56.5039C452.998 56.4517 453.101 56.5039 453.084 56.5039L453.205 56.5909L453.412 56.7475L455.38 58.2784L453.032 57.2346C451.533 56.5151 449.973 55.9329 448.37 55.4949L445.884 54.8164L444.744 54.5902H444.468H444.261C444.347 53.529 444.347 54.2771 444.347 54.0509H444.831C444.831 53.5638 444.969 54.6946 444.831 54.6076H444.503C443.044 54.4 441.573 54.2838 440.1 54.2597C439.392 54.2597 438.684 54.1727 438.011 54.2597H436.975H436.267C436.213 54.2266 436.171 54.1781 436.146 54.1205C436.146 54.1205 436.146 53.8421 436.146 53.8247H436.232H436.457C436.559 53.8065 436.665 53.8065 436.767 53.8247L437.993 54.1553L436.646 54.2945C435.265 54.4336 433.763 54.8164 432.485 55.0599C431.847 55.175 431.218 55.3378 430.603 55.5471L429.705 55.808L429.291 55.9646H429.153C429.153 55.9646 429.153 55.9646 429.153 55.8254C429.153 55.6862 429.153 55.7384 429.067 55.6688C428.98 55.5993 428.825 55.6688 428.859 55.6688H428.998C428.998 55.6688 429.308 55.7558 429.257 55.8776C429.257 55.9179 429.246 55.9573 429.224 55.9913C429.203 56.0252 429.172 56.0522 429.136 56.069H429.049L428.79 56.1734C428.612 56.2349 428.439 56.3106 428.272 56.3995L427.288 56.8693L425.475 57.7391C424.928 58.0143 424.398 58.3222 423.887 58.6612L423.144 59.1135L422.782 59.3571H422.661C422.661 59.3571 422.661 59.3571 422.523 59.3571C422.385 59.3571 422.523 59.1831 422.523 59.1657H422.626H422.713C422.713 59.1657 422.713 59.1657 422.92 59.1657L422.73 59.4441C422.972 59.4441 422.816 59.4441 422.834 59.4441L422.713 59.531L422.488 59.7224L422.022 60.1051L421.159 60.8358L419.985 61.6709C419.501 62.0884 419.121 62.5408 418.724 62.9409L418.154 63.5324L418.016 63.689C418.016 63.689 418.016 63.8282 417.826 63.5846C417.921 63.4715 418.025 63.3667 418.137 63.2714L418.724 62.8191L418.206 63.4976C416.911 65.2373 415.927 66.6987 415.323 67.586L414.494 68.9778C414.494 68.9778 414.736 68.4732 415.236 67.5164C415.495 67.0467 415.91 66.4725 416.359 65.7767L417.136 64.6284L417.55 63.9847C417.693 63.7123 417.893 63.4747 418.137 63.2889V63.4106L418.016 63.5498C417.723 63.2889 417.895 63.428 417.861 63.3932L417.999 63.2367C418.169 63.0209 418.354 62.8175 418.552 62.6278C418.931 62.2276 419.329 61.7579 419.795 61.323L421.366 59.9486L422.212 59.2005L422.661 58.8178L422.903 58.6264L423.041 58.522C423.041 58.522 423.041 58.522 423.3 58.522L423.162 58.6612C423.162 58.6612 423.162 58.7656 423.162 58.8178H423.075H422.989C422.92 58.7231 422.856 58.6243 422.799 58.522L423.144 58.2784L423.887 57.8087C424.403 57.4639 424.939 57.1502 425.493 56.8693L427.323 55.9646L428.29 55.4775L428.825 55.2513L429.084 55.1469C429.084 55.1469 429.084 55.1469 429.084 55.2687C429.084 55.3905 429.239 55.2687 429.084 55.2687C428.928 55.2687 429.084 55.4427 429.084 55.4601H428.946H429.032L428.928 55.5471C428.897 55.5638 428.861 55.5726 428.825 55.5726C428.789 55.5726 428.753 55.5638 428.721 55.5471C428.692 55.5322 428.667 55.5099 428.649 55.4825C428.631 55.4551 428.62 55.4234 428.618 55.3905C428.618 55.2165 428.618 55.2339 428.618 55.2339C428.691 55.1621 428.779 55.1085 428.877 55.0773L429.308 54.9208L430.206 54.6424C430.833 54.4275 431.474 54.2531 432.123 54.1205L434.177 53.6856C434.943 53.502 435.723 53.3856 436.508 53.3376L436.387 53.8073H436.198V53.6682C436.198 53.5638 436.198 53.6682 436.198 53.4768C436.198 53.2854 436.198 53.4768 436.198 53.3724H436.681H437.7C438.408 53.3724 439.116 53.3724 439.841 53.3724C441.331 53.3845 442.818 53.4891 444.295 53.6856H444.572C444.347 53.9117 444.572 54.1205 444.572 54.2249H444.209C444.2 54.1207 444.2 54.0159 444.209 53.9117C444.209 53.5986 444.209 53.6856 444.209 53.6682H444.313H444.606L445.78 53.8943L448.128 54.5554C449.802 54.9808 451.432 55.5633 452.998 56.2951L452.618 56.7823L452.428 56.6257H452.341C452.341 56.6257 452.428 56.4343 452.549 56.2951L452.704 56.156C452.813 56.2453 452.929 56.3266 453.049 56.3995L453.93 56.904L455.743 57.9131C456.948 58.6505 458.102 59.4701 459.196 60.3661L462.287 63.4106C462.747 64.0021 463.231 64.582 463.737 65.1504L464.462 66.055L464.825 66.4899C464.998 66.4899 464.531 66.9423 464.376 66.9423C464.332 66.8879 464.279 66.8409 464.221 66.8031L464.635 66.2464C466.227 68.5558 467.537 71.0499 468.537 73.675H467.829V73.4489C467.829 73.4489 467.726 73.4488 468.123 73.3097C468.123 73.3097 468.278 73.3097 468.433 73.3097C468.461 73.4523 468.502 73.592 468.554 73.7272C468.675 74.0578 468.762 74.4057 468.882 74.7362C469.105 75.4139 469.284 76.1054 469.418 76.8065C469.771 78.2669 470.031 79.7488 470.195 81.2428H469.798C469.695 81.217 469.589 81.217 469.487 81.2428V80.8079C469.608 80.8079 469.815 80.7035 469.97 80.8079H470.229V81.382V82.4432C470.272 83.1617 470.272 83.8821 470.229 84.6005C470.229 85.3138 470.229 86.0445 470.143 86.7752C470.143 87.1405 470.143 87.5058 470.039 87.8712C469.936 88.2365 470.039 88.1843 470.039 88.3931C470.057 88.662 469.991 88.9297 469.849 89.1586L468.796 91.0375L469.159 88.8454V88.4279L469.936 88.5671C469.815 89.263 469.659 89.9589 469.504 90.6547L468.882 92.7424C468.658 93.4383 468.485 94.1516 468.226 94.8301L467.812 95.8565L467.605 96.3784C467.545 96.5892 467.451 96.7889 467.328 96.97L466.983 96.6916C466.904 96.6237 466.817 96.5653 466.724 96.5176V96.3958V96.2915C466.724 96.2915 466.638 96.2915 466.88 96.2915C467.075 96.3383 467.257 96.4273 467.415 96.5524L467.173 97.0395C467.03 97.3651 466.863 97.6792 466.672 97.979L465.74 99.9449C465.391 100.586 464.999 101.202 464.566 101.789L463.927 102.676C463.668 102.937 463.72 103.216 463.098 103.65L460.577 105.39L462.615 102.937L462.891 102.624L463.513 103.163C462.649 104.207 461.613 105.112 460.664 106.104C460.18 106.593 459.667 107.052 459.127 107.478C458.868 107.707 458.598 107.922 458.316 108.122L457.918 108.435C457.756 108.608 457.554 108.739 457.331 108.817L457.159 108.017C457.159 108.017 457.159 108.017 457.28 108.139C457.328 108.2 457.387 108.253 457.452 108.296C457.452 108.296 457.452 108.4 457.452 108.47C457.452 108.539 457.556 108.661 457.539 108.696L457.107 108.957L456.209 109.496L454.482 110.592C453.878 110.957 453.222 111.236 452.583 111.549L451.599 111.984C451.25 112.2 450.863 112.348 450.459 112.419V111.966C450.477 111.886 450.477 111.803 450.459 111.723C450.459 111.514 450.459 111.566 450.459 111.566H450.58H450.684C450.787 111.789 450.868 112.023 450.926 112.262C450.926 112.401 450.926 112.367 450.926 112.367L450.425 112.523L449.423 112.854C448.75 113.045 448.059 113.254 447.369 113.428C445.987 113.671 444.572 113.984 443.156 114.176C443.156 114.298 443.035 113.845 443.156 113.758C443.173 113.702 443.173 113.641 443.156 113.584C443.156 113.323 443.156 113.428 443.156 113.41H443.449C443.461 113.479 443.461 113.55 443.449 113.619C443.432 113.67 443.432 113.725 443.449 113.776V114.211H442.983H441.913C441.188 114.254 440.462 114.254 439.737 114.211C438.321 114.089 436.767 114.089 435.421 113.863V112.975H435.766H435.921C436.077 112.819 435.559 114.593 435.749 113.845H435.524L434.972 113.741L433.832 113.48C433.078 113.332 432.338 113.117 431.622 112.836L429.395 112.123L428.29 111.74C428.107 111.675 427.928 111.6 427.754 111.514L427.495 111.392C427.495 111.392 427.392 111.392 427.668 111.392C427.944 111.392 427.893 111.062 427.789 111.044C427.599 111.044 427.685 111.027 427.789 111.044C427.979 111.044 428.082 110.749 428.013 110.731H428.134L427.737 111.531C426.546 110.957 425.389 110.244 424.284 109.566C423.179 108.887 422.039 108.035 421.003 107.165L421.556 106.469L421.711 106.573C421.711 106.573 421.711 106.573 421.539 106.799C421.366 107.026 421.021 107.356 421.141 107.252L420.865 107.026C420.675 106.852 420.52 106.678 420.347 106.486L419.311 105.442L417.274 103.32C416.974 103.025 416.611 102.802 416.214 102.667C415.817 102.532 415.395 102.489 414.978 102.541C414.562 102.593 414.163 102.738 413.81 102.966C413.457 103.194 413.16 103.5 412.94 103.859C412.718 104.223 412.583 104.634 412.544 105.059C412.505 105.485 412.564 105.913 412.716 106.312C413.161 107.143 413.745 107.891 414.442 108.522C415.782 109.969 417.243 111.296 418.811 112.488C422.623 115.437 426.99 117.577 431.646 118.777C436.302 119.977 441.152 120.214 445.902 119.472C450.651 118.731 455.202 117.027 459.28 114.463C463.358 111.899 466.877 108.528 469.625 104.555C472.198 100.879 474.061 96.7479 475.115 92.3771C476.561 86.381 476.455 80.1114 474.808 74.1684C473.16 68.2254 470.026 62.808 465.705 58.435C460.673 53.4163 454.313 49.9619 447.386 48.4838C441.479 47.207 435.348 47.4342 429.55 49.1449C424.87 50.5373 420.534 52.9085 416.825 56.1038C414.102 58.4584 411.771 61.2364 409.918 64.3327C409.264 65.2194 408.767 66.2143 408.451 67.2728V67.1336C410.076 67.3662 411.673 67.7685 413.216 68.3341C413.594 68.474 413.958 68.6487 414.304 68.856C414.365 68.9167 414.423 68.9805 414.477 69.0473Z" fill="#323949"/>
<path d="M402.339 228.58L389.164 224.475L393.239 211.2L406.413 215.306L402.339 228.58ZM391.323 223.361L401.199 226.44L404.255 216.489L394.379 213.41L391.323 223.361Z" fill="#02B9CE"/>
<path d="M423.024 162.697L409.867 158.591L413.942 145.317L427.116 149.423L423.024 162.697ZM412.025 157.478L421.901 160.557L424.957 150.606L415.081 147.526L412.025 157.478Z" fill="#02B9CE"/>
<path d="M408.209 193.42C407.472 193.414 406.739 193.302 406.033 193.09C405.113 192.804 404.258 192.339 403.517 191.72C402.775 191.102 402.162 190.342 401.713 189.484C401.263 188.626 400.986 187.688 400.897 186.722C400.807 185.756 400.908 184.782 401.193 183.856C401.478 182.929 401.942 182.069 402.557 181.323C403.173 180.577 403.928 179.961 404.78 179.51C405.632 179.058 406.564 178.781 407.523 178.693C408.482 178.605 409.448 178.709 410.367 178.998C412.218 179.579 413.765 180.876 414.668 182.604C415.571 184.333 415.757 186.352 415.184 188.218C414.733 189.715 413.82 191.028 412.578 191.966C411.337 192.905 409.83 193.42 408.278 193.437L408.209 193.42ZM408.209 180.407C407.015 180.403 405.851 180.787 404.89 181.501C403.929 182.216 403.222 183.223 402.874 184.373C402.651 185.08 402.571 185.824 402.639 186.563C402.707 187.301 402.922 188.018 403.271 188.671C403.961 189.988 405.14 190.976 406.551 191.419C407.966 191.86 409.497 191.718 410.808 191.023C412.119 190.328 413.103 189.138 413.544 187.714C413.766 187.007 413.846 186.263 413.781 185.524C413.716 184.785 413.507 184.067 413.165 183.411C412.823 182.754 412.355 182.172 411.789 181.698C411.223 181.225 410.57 180.869 409.866 180.65C409.322 180.491 408.758 180.409 408.192 180.407H408.209Z" fill="#02B9CE"/>
</svg>
