<svg width="314" height="28" viewBox="0 0 314 28" fill="none" xmlns="http://www.w3.org/2000/svg">
<path d="M314 13.6481C314 15.3056 313.691 16.6913 313.074 17.8053C312.457 18.9125 311.561 19.7479 310.386 20.3116C309.212 20.8686 307.796 21.1471 306.139 21.1471H302.052V6.43091H306.582C308.105 6.43091 309.42 6.70604 310.527 7.2563C311.635 7.79986 312.49 8.60847 313.094 9.68216C313.698 10.7491 314 12.0711 314 13.6481ZM311.484 13.7185C311.484 12.5106 311.292 11.5175 310.91 10.7391C310.534 9.96065 309.977 9.38354 309.239 9.00775C308.508 8.62525 307.605 8.434 306.531 8.434H304.468V19.1239H306.179C307.957 19.1239 309.286 18.6709 310.165 17.765C311.044 16.8591 311.484 15.5103 311.484 13.7185Z" fill="#393939"/>
<path d="M296.125 21.1471H293.156L285.949 9.40032H285.858C285.885 9.79624 285.908 10.2156 285.928 10.6585C285.955 11.1014 285.975 11.5578 285.989 12.0275C286.009 12.4972 286.026 12.9737 286.039 13.4568V21.1471H283.845V6.43091H286.794L293.991 18.0972H294.062C294.048 17.7549 294.031 17.3624 294.011 16.9195C293.991 16.4766 293.971 16.0203 293.951 15.5505C293.937 15.0741 293.927 14.6144 293.921 14.1715V6.43091H296.125V21.1471Z" fill="#393939"/>
<path d="M277.274 21.1472L275.835 17.0605H270.208L268.768 21.1472H266.222L271.697 6.37067H274.375L279.841 21.1472H277.274ZM275.21 14.987L273.811 10.9607C273.758 10.7862 273.68 10.5413 273.58 10.2259C273.479 9.90376 273.378 9.5783 273.278 9.24948C273.177 8.91396 273.093 8.63211 273.026 8.40396C272.959 8.67909 272.875 8.98777 272.775 9.33001C272.681 9.66553 272.587 9.98093 272.493 10.2762C272.405 10.5715 272.338 10.7996 272.291 10.9607L270.882 14.987H275.21Z" fill="#393939"/>
<path d="M253.44 21.1471L249.203 8.85676H249.112C249.132 9.1319 249.156 9.50768 249.182 9.98413C249.209 10.4606 249.233 10.9706 249.253 11.5141C249.273 12.0577 249.283 12.5778 249.283 13.0743V21.1471H247.089V6.43091H250.481L254.558 18.1777H254.618L258.836 6.43091H262.218V21.1471H259.913V12.9535C259.913 12.5039 259.919 12.0174 259.933 11.494C259.953 10.9706 259.973 10.474 259.993 10.0043C260.02 9.53453 260.04 9.15874 260.053 8.8769H259.973L255.574 21.1471H253.44Z" fill="#393939"/>
<path d="M241.846 21.1471H233.512V6.43091H241.846V8.4642H235.928V12.4603H241.474V14.4835H235.928V19.1037H241.846V21.1471Z" fill="#393939"/>
<path d="M228.279 13.6481C228.279 15.3056 227.971 16.6913 227.353 17.8053C226.736 18.9125 225.84 19.7479 224.666 20.3116C223.491 20.8686 222.076 21.1471 220.418 21.1471H216.331V6.43091H220.861C222.384 6.43091 223.699 6.70604 224.807 7.2563C225.914 7.79986 226.77 8.60847 227.373 9.68216C227.977 10.7491 228.279 12.0711 228.279 13.6481ZM225.763 13.7185C225.763 12.5106 225.572 11.5175 225.189 10.7391C224.813 9.96065 224.256 9.38354 223.518 9.00775C222.787 8.62525 221.884 8.434 220.811 8.434H218.747V19.1239H220.458C222.237 19.1239 223.565 18.6709 224.444 17.765C225.323 16.8591 225.763 15.5103 225.763 13.7185Z" fill="#393939"/>
<path d="M210.244 21.1471H209.187L200.49 8.13203H200.439C200.453 8.4944 200.463 8.86347 200.47 9.23926C200.483 9.60834 200.493 9.99084 200.5 10.3868C200.513 10.776 200.52 11.1786 200.52 11.5947V21.1471H199.534V6.43091H200.601L209.267 19.4057H209.318C209.311 19.1104 209.301 18.7682 209.287 18.379C209.281 17.9898 209.271 17.5905 209.257 17.1812C209.25 16.7718 209.247 16.386 209.247 16.0236V6.43091H210.244V21.1471Z" fill="#393939"/>
<path d="M194.09 13.7689C194.09 14.8896 193.953 15.913 193.677 16.839C193.402 17.7651 192.99 18.5636 192.439 19.2347C191.889 19.9057 191.201 20.4258 190.376 20.7949C189.557 21.1639 188.601 21.3485 187.507 21.3485C186.407 21.3485 185.444 21.1639 184.618 20.7949C183.793 20.4258 183.105 19.9057 182.555 19.2347C182.011 18.5569 181.602 17.755 181.327 16.8289C181.052 15.8962 180.914 14.8695 180.914 13.7488C180.914 12.2591 181.166 10.9472 181.669 9.81308C182.179 8.679 182.927 7.79321 183.914 7.15571C184.907 6.51821 186.131 6.19946 187.588 6.19946C188.983 6.19946 190.165 6.50479 191.131 7.11545C192.104 7.7194 192.839 8.58841 193.335 9.72249C193.839 10.8499 194.09 12.1987 194.09 13.7689ZM182.001 13.7589C182.001 15.0741 182.199 16.2351 182.595 17.2416C182.991 18.2415 183.598 19.0233 184.417 19.587C185.236 20.1506 186.269 20.4325 187.517 20.4325C188.779 20.4325 189.816 20.154 190.628 19.597C191.44 19.0401 192.04 18.2616 192.429 17.2618C192.819 16.2619 193.013 15.0976 193.013 13.7689C193.013 11.6685 192.553 10.0379 191.634 8.87696C190.721 7.71604 189.373 7.13558 187.588 7.13558C186.333 7.13558 185.289 7.41407 184.457 7.97104C183.632 8.52802 183.014 9.30308 182.605 10.2962C182.202 11.2894 182.001 12.4436 182.001 13.7589Z" fill="#393939"/>
<g clip-path="url(#clip0_12055_17635)">
<path d="M92.7305 6.67286C92.58 6.46086 92.3392 6.18828 91.6169 6.15799C91.2858 6.15799 90.8645 6.18828 91.045 6.40028L96.4325 13.3056L97.2451 12.4879L92.7305 6.67286Z" fill="#F99F1C"/>
<path d="M92.7305 20.8774C92.58 21.0894 92.3392 21.362 91.6169 21.3922C91.2858 21.3922 90.8645 21.362 91.045 21.1499L96.4325 14.2446L97.2451 15.0623L92.7305 20.8774Z" fill="#B52025"/>
<path d="M102.362 6.67286C102.512 6.46086 102.753 6.18828 103.475 6.15799C103.806 6.15799 104.228 6.18828 104.047 6.40028L98.6597 13.3056L97.847 12.4879L102.362 6.67286Z" fill="#F15B40"/>
<path d="M102.362 20.8774C102.512 21.0894 102.753 21.362 103.475 21.3922C103.806 21.3922 104.228 21.362 104.047 21.1499L98.6597 14.2446L97.847 15.0623L102.362 20.8774Z" fill="#F36C21"/>
<path d="M7.31359 21.4225C3.13003 21.4225 -0.00012207 18.1516 -0.00012207 13.8206V13.7903C-0.00012207 9.48962 3.22032 6.12781 7.34369 6.12781C9.96218 6.12781 11.4972 7.06669 13.0321 8.49016L13.0923 8.55074L12.2195 9.45933L12.1593 9.39876C11.0758 8.33873 9.6612 7.2787 7.31359 7.2787C3.85237 7.2787 1.26398 10.0651 1.26398 13.76V13.7903C1.26398 17.455 3.94266 20.3019 7.34369 20.3019C9.23983 20.3019 10.6845 19.6356 12.3098 18.0304L12.37 17.9699L13.2127 18.7876L13.1224 18.8482C11.8583 20.1202 10.1729 21.4225 7.31359 21.4225Z" fill="#393939"/>
<path d="M25.2819 21.4224C21.0682 21.4224 17.908 18.1515 17.908 13.8205V13.7902C17.8779 11.8216 18.6303 9.91353 19.9546 8.45978C21.3391 6.94545 23.2653 6.09742 25.312 6.12771C29.5256 6.12771 32.6859 9.39866 32.6859 13.7296V13.7599C32.716 15.7286 31.9635 17.6366 30.6393 19.0904C29.2548 20.6047 27.2984 21.4527 25.2819 21.4224ZM25.2819 7.24831C21.7906 7.24831 19.1721 10.0347 19.1721 13.7296V13.7599C19.1721 17.4246 21.8809 20.2716 25.312 20.2716C28.7431 20.2716 31.4218 17.4852 31.4218 13.7902V13.7599C31.4218 10.1255 28.713 7.24831 25.2819 7.24831Z" fill="#393939"/>
<path d="M48.457 6.37015V18.9694L38.5248 6.37015H37.3811V21.1803H38.585V8.2782L48.6978 21.15L48.7279 21.1803H49.6308V6.37015H48.457Z" fill="#393939"/>
<path d="M67.7797 6.37015V18.9694L57.8475 6.37015H56.7339V21.1803H57.9077V8.2782L68.0205 21.15L68.0506 21.1803H68.9535V6.37015H67.7797Z" fill="#393939"/>
<path d="M76.0564 6.37015V21.1803H86.6507V20.0294H77.2904V14.275H85.6274V13.1241H77.2904V7.52104H86.5605V6.37015H76.0564Z" fill="#393939"/>
<path d="M111.571 6.37015H110.338V21.15H111.571V6.37015Z" fill="#393939"/>
<path d="M132.339 13.7601V13.7298C132.339 9.73201 129.45 6.18848 125.055 6.18848C120.661 6.18848 117.681 9.7623 117.681 13.7601V13.7904C117.681 17.7882 120.571 21.3318 124.965 21.3318C129.359 21.3318 132.339 17.758 132.339 13.7601ZM131.135 13.8207C131.135 17.5157 128.517 20.302 125.025 20.302C121.534 20.302 118.885 17.4551 118.885 13.7904V13.7601C118.885 10.0652 121.504 7.27879 124.995 7.27879C128.486 7.27879 131.135 10.156 131.135 13.7904V13.8207Z" fill="#393939"/>
<path d="M148.471 6.37015V18.9694L138.539 6.37015H137.426V21.1803H138.599V8.2782L148.712 21.15L148.742 21.1803H149.675V6.37015H148.471Z" fill="#393939"/>
</g>
<rect x="164.766" width="0.875273" height="28.0087" fill="#4B4B4B"/>
<defs>
<clipPath id="clip0_12055_17635">
<rect width="149.578" height="15.2978" fill="white" transform="translate(-0.00012207 6.12692)"/>
</clipPath>
</defs>
</svg>
